<svg width="259" height="76" viewBox="0 0 259 76" fill="none" xmlns="http://www.w3.org/2000/svg">
<path d="M77.3593 9.62654V5.63631C77.3593 3.32982 75.8523 1.5 73.9535 1.5H4.66892C2.80777 1.5 1.27816 3.35288 1.27816 5.63631V32.4301C1.27816 34.7366 2.78517 36.5587 4.69153 36.5587H63.8264C65.7027 36.5587 67.2097 38.4116 67.2097 40.695V43.0015C67.2097 45.308 65.7027 47.1378 63.7963 47.1378H4.66892C2.78516 47.1378 1.25555 48.9907 1.25555 51.2741V55.2644C1.25555 57.5709 2.76256 59.4007 4.66892 59.4007H73.9912C75.8749 59.4007 77.397 57.5478 77.397 55.2644V28.4322C77.397 26.1257 75.89 24.2958 73.9912 24.2958H14.8111C12.9273 24.2958 11.3977 22.4506 11.3977 20.1672V17.8607C11.3977 15.5542 12.9047 13.7321 14.8111 13.7321H73.9912C75.8373 13.7629 77.3593 11.8792 77.3593 9.62654Z" fill="#F37D20" stroke="#231F20" stroke-width="3" stroke-miterlimit="10"/>
<path d="M3.38797 74.2776C3.31209 74.3123 3.23 74.3306 3.14685 74.3314C3.14685 74.3314 3.0715 74.2622 3.01122 74.1469C2.84544 73.6856 2.64953 73.1551 2.42348 72.5477L1.74533 70.7332C1.52681 70.1182 1.3083 69.5339 1.10485 68.9726C0.901407 68.4114 0.728102 67.9347 0.600006 67.5503C0.600006 67.5042 0.600006 67.4734 0.682891 67.458C0.740373 67.4497 0.798715 67.4497 0.856197 67.458H1.0295C1.08225 67.458 1.11239 67.5042 1.11239 67.5272C1.29323 68.0962 1.459 68.5959 1.6097 69.0649C1.7604 69.5339 1.9111 69.949 2.0618 70.3796C2.2125 70.8101 2.38581 71.2561 2.56665 71.7097C2.74749 72.1633 2.97354 72.6938 3.22973 73.2473C3.47839 72.2786 3.68937 71.3406 3.86267 70.418C4.03598 69.4954 4.17161 68.6805 4.2771 67.9501C4.38259 67.2197 4.45041 66.62 4.49562 66.1587C4.54083 65.6974 4.5785 65.3899 4.59357 65.3899C4.60864 65.3899 4.59357 65.3207 4.66892 65.2976C4.71884 65.2896 4.7697 65.2896 4.81962 65.2976C4.86942 65.288 4.92053 65.288 4.97032 65.2976C5.01553 65.2976 5.03814 65.3437 5.03814 65.3822C5.03814 65.5564 4.99293 65.887 4.90251 66.374C4.83469 66.8583 4.75181 67.4196 4.65385 68.05C4.5559 68.6805 4.45041 69.3417 4.33738 70.0336C4.22435 70.7256 4.10379 71.3714 3.99077 71.9711C3.87774 72.5708 3.76472 73.0782 3.65923 73.5087C3.61738 73.7802 3.52533 74.0411 3.38797 74.2776Z" fill="#010101"/>
<path d="M5.21145 70.5257C5.38117 70.5361 5.5499 70.5592 5.7163 70.5949C5.89977 70.6327 6.08092 70.6815 6.25882 70.7409C6.42625 70.7994 6.58984 70.8687 6.7486 70.9485C6.88132 71.0198 7.00316 71.1105 7.11028 71.2176C7.21769 71.3253 7.27984 71.4715 7.28358 71.6251C7.29626 71.8309 7.2836 72.0375 7.24591 72.2402C7.2022 72.4708 7.13918 72.6971 7.05753 72.9167C6.97942 73.1359 6.88626 73.3491 6.77874 73.5549C6.6856 73.7252 6.57167 73.8828 6.43966 74.0238C6.35489 74.1286 6.23303 74.1949 6.10058 74.2084C5.94263 74.2134 5.78711 74.1677 5.65602 74.0777C5.53777 73.9944 5.43772 73.8871 5.36215 73.7624C5.2954 73.6408 5.24232 73.5118 5.20392 73.378C5.17029 73.2626 5.14758 73.1442 5.1361 73.0244C5.1361 72.5938 5.1361 72.2017 5.1361 71.8711C5.14872 71.5901 5.17892 71.3102 5.22652 71.0331L5.15117 70.9178L5.07582 70.8255L4.99294 70.7486C5.03068 70.7306 5.06411 70.7043 5.09089 70.6717C5.14185 70.6335 5.18317 70.5834 5.21145 70.5257ZM5.64095 73.4549L5.7389 73.5625C5.78461 73.5984 5.83544 73.6269 5.8896 73.6471C5.95094 73.6666 6.01664 73.6666 6.07798 73.6471C6.15647 73.6199 6.22662 73.5722 6.28143 73.5087C6.46079 73.3251 6.60854 73.112 6.71846 72.8783C6.80548 72.6825 6.86631 72.4756 6.8993 72.2632C6.93361 72.0933 6.93361 71.918 6.8993 71.7481C6.87515 71.6272 6.81455 71.517 6.72599 71.4329L6.56022 71.3252C6.5086 71.2921 6.45284 71.2663 6.39445 71.2484L6.13072 71.1638L5.7163 71.0792C5.63794 71.3302 5.57998 71.5874 5.54299 71.8481C5.52558 72.0886 5.52558 72.3302 5.54299 72.5708C5.54074 72.7614 5.55588 72.9519 5.5882 73.1397C5.59315 73.2466 5.61086 73.3524 5.64095 73.4549Z" fill="#010101"/>
<path d="M9.33311 70.5487L10.3503 70.4718L11.3902 70.3796C11.427 70.3803 11.4626 70.3936 11.4913 70.4172C11.5199 70.4409 11.54 70.4736 11.5484 70.5103C11.5484 70.5872 11.5484 70.6333 11.4505 70.6487C11.1566 70.6487 10.8175 70.7256 10.4257 70.7871C10.0575 70.8391 9.69263 70.9136 9.33311 71.01C9.33311 71.2637 9.33311 71.5251 9.33311 71.7789C9.33311 72.0326 9.33311 72.3094 9.33311 72.5477C9.33311 72.786 9.33311 73.0551 9.40846 73.3165C9.44287 73.5451 9.50096 73.7693 9.58176 73.9854C9.66211 74.1064 9.78249 74.1937 9.92084 74.2314C10.0236 74.266 10.1345 74.266 10.2373 74.2314C10.3405 74.1949 10.4354 74.1374 10.5161 74.0623C10.599 73.9777 10.6743 73.9085 10.7422 73.8316C10.81 73.7548 10.8401 73.7778 10.8778 73.8316C10.9155 73.8855 10.8778 73.9777 10.7798 74.093L10.599 74.2776C10.5188 74.3435 10.4301 74.3979 10.3353 74.439C10.2285 74.4887 10.1134 74.5174 9.99619 74.5236C9.86425 74.5492 9.72877 74.5492 9.59683 74.5236C9.496 74.4895 9.40519 74.4301 9.33277 74.3509C9.26035 74.2716 9.20864 74.175 9.18241 74.07C9.09038 73.7795 9.0248 73.4809 8.9865 73.1781C8.94129 72.8322 8.91115 72.4785 8.89608 72.1095C8.88101 71.7404 8.8584 71.4098 8.8358 71.1177C8.48165 71.1177 8.22546 71.1792 8.08229 71.2022L7.72815 71.2484C7.67877 71.2617 7.62683 71.2617 7.57745 71.2484L7.46442 71.0792C7.46815 71.0409 7.46815 71.0022 7.46442 70.9639C7.45677 70.9336 7.45677 70.9019 7.46442 70.8716C7.46442 70.8716 7.46442 70.8255 7.50963 70.7948C7.56129 70.7653 7.61726 70.7445 7.6754 70.7332C7.84659 70.6982 8.02072 70.6802 8.19532 70.6794C8.41981 70.6774 8.64389 70.6594 8.86594 70.6256C8.86594 70.3642 8.86594 70.1566 8.86594 70.0105C8.86594 69.8645 8.86594 69.7338 8.86594 69.6261V69.2955C8.86594 69.1879 8.86594 69.0495 8.86594 68.8804C8.8675 68.86 8.8747 68.8405 8.88671 68.8242C8.89872 68.8079 8.91504 68.7953 8.93375 68.7881C8.98368 68.7802 9.03452 68.7802 9.08445 68.7881C9.11897 68.7791 9.15434 68.774 9.18994 68.7727C9.23216 68.7909 9.26682 68.8235 9.2879 68.865C9.31523 68.9731 9.3304 69.084 9.33311 69.1956C9.33311 69.334 9.33311 69.4877 9.33311 69.6492V70.1336C9.34064 70.3104 9.34064 70.4411 9.33311 70.5487Z" fill="#010101"/>
<path d="M11.1189 70.3104C11.1189 70.2335 11.1189 70.2181 11.2319 70.2489L11.4881 70.3719C11.4881 70.5564 11.5484 70.7102 11.5635 70.8178C11.5785 70.9255 11.5635 71.0331 11.5635 71.133V71.4483C11.5635 71.5636 11.5635 71.7173 11.5635 71.9096C11.6285 71.7242 11.7171 71.5484 11.8272 71.3868C11.9323 71.223 12.068 71.0819 12.2266 70.9716C12.4074 70.8493 12.6094 70.7631 12.8218 70.7179C13.1152 70.6636 13.4147 70.6532 13.711 70.6871C13.7118 70.7491 13.6904 70.8093 13.6507 70.8563C13.5569 70.914 13.451 70.9483 13.3417 70.9562C13.125 70.9943 12.9177 71.0753 12.7314 71.1945C12.5644 71.3104 12.4147 71.4503 12.2868 71.6097C12.1627 71.7602 12.0612 71.9286 11.9854 72.1094C11.9101 72.2863 11.8423 72.4477 11.7971 72.5938C11.7519 72.7399 11.7971 72.7706 11.7971 72.909C11.789 73.0524 11.789 73.1962 11.7971 73.3396C11.7971 73.4933 11.7971 73.6394 11.7971 73.7778C11.7833 73.8901 11.7833 74.0038 11.7971 74.1161C11.7993 74.1262 11.7994 74.1367 11.7975 74.1468C11.7957 74.157 11.7918 74.1667 11.7862 74.1753C11.7806 74.1839 11.7733 74.1913 11.7648 74.197C11.7563 74.2027 11.7468 74.2065 11.7368 74.2084C11.6901 74.234 11.6389 74.2497 11.5861 74.2545C11.537 74.2699 11.4845 74.2699 11.4354 74.2545C11.3826 74.2545 11.36 74.2545 11.36 74.1699C11.3789 73.4414 11.3563 72.7123 11.2922 71.9864C11.2219 71.3816 11.1641 70.8229 11.1189 70.3104Z" fill="#010101"/>
<path d="M14.4042 70.7332L14.6152 70.6717C14.7034 70.6429 14.7982 70.6429 14.8864 70.6717C14.9845 70.6618 15.0835 70.6732 15.177 70.705C15.2705 70.7368 15.3563 70.7883 15.4289 70.8563C15.5495 70.987 15.557 71.2407 15.4289 71.6251C15.2955 71.9886 15.099 72.3246 14.8487 72.6169C14.5746 72.9018 14.2743 73.1592 13.9521 73.3857C13.972 73.475 14.0167 73.5566 14.0808 73.6207C14.1449 73.6848 14.2258 73.7287 14.3138 73.7471C14.4865 73.7704 14.6622 73.741 14.8186 73.6625C15.0028 73.5805 15.1772 73.4773 15.3385 73.355C15.5043 73.2268 15.6399 73.1115 15.7454 73.009L16.1523 72.6323C16.2646 72.5128 16.3702 72.387 16.4688 72.2555C16.4688 72.2555 16.5065 72.2555 16.514 72.2555C16.5172 72.2862 16.5172 72.3171 16.514 72.3478L16.4763 72.5169C16.4589 72.5717 16.4335 72.6236 16.401 72.6707C16.3744 72.7258 16.3416 72.7774 16.303 72.8245L16.1297 73.009L15.8584 73.3088L15.5118 73.6471C15.4028 73.7531 15.2842 73.8483 15.1577 73.9316C15.0319 74.017 14.8912 74.077 14.7433 74.1084C14.5738 74.1394 14.4003 74.1394 14.2309 74.1084C14.0975 74.059 13.9689 73.9972 13.8466 73.9239C13.7636 73.8667 13.6899 73.7967 13.6281 73.7163C13.5836 73.6578 13.5433 73.5962 13.5075 73.5318C13.4876 73.4821 13.4725 73.4306 13.4623 73.378C13.4204 73.1604 13.4052 72.9383 13.4171 72.7168C13.4422 72.345 13.5235 71.9793 13.6582 71.6328C13.7451 71.425 13.8564 71.2288 13.9898 71.0485C14.1074 70.9179 14.248 70.811 14.4042 70.7332ZM13.8767 72.9167C14.0045 72.8422 14.1277 72.7601 14.2459 72.6707C14.3897 72.566 14.5234 72.4475 14.6453 72.317C14.7682 72.1803 14.8767 72.0308 14.9693 71.8711C15.059 71.7113 15.1106 71.5322 15.12 71.3483C15.1501 71.2665 15.1501 71.1764 15.12 71.0946C15.12 71.0946 15.12 71.0946 15.0748 71.0946C15.0075 71.0619 14.9322 71.0502 14.8584 71.0612C14.7847 71.0721 14.7157 71.1052 14.6604 71.1561C14.5112 71.283 14.386 71.4368 14.2912 71.6097C14.1719 71.8185 14.0758 72.0403 14.0048 72.2709C13.9311 72.4786 13.888 72.6962 13.8767 72.9167Z" fill="#010101"/>
<path d="M23.8079 69.7799C23.926 69.8329 24.0296 69.9145 24.1097 70.0177C24.1899 70.1209 24.244 70.2425 24.2675 70.3719C24.295 70.6338 24.2561 70.8986 24.1545 71.1407C24.0216 71.4519 23.8493 71.744 23.6421 72.0095C23.4155 72.2896 23.1631 72.5471 22.8886 72.7783L22.7605 72.8937L22.5872 73.0321L22.429 73.1551L22.316 73.2473C21.942 73.5081 21.549 73.7395 21.1405 73.9393C20.7487 74.1315 20.3267 74.3083 19.8746 74.4775C19.7 74.5073 19.5218 74.5073 19.3472 74.4775C19.2156 74.4586 19.0882 74.417 18.9704 74.3544C18.878 74.3111 18.7995 74.2418 18.7444 74.1545C18.7031 74.0995 18.6818 74.0316 18.6841 73.9623C18.8285 73.9931 18.9744 74.0162 19.1211 74.0315C19.2012 74.0408 19.2821 74.0408 19.3622 74.0315L19.4828 73.9854C19.5105 73.9614 19.5408 73.9407 19.5732 73.9239C19.5732 73.7394 19.5732 73.5702 19.5732 73.4242C19.5732 73.2781 19.5732 73.1397 19.5732 73.0167C19.5732 72.8937 19.5732 72.7783 19.5732 72.663V72.3017C19.5732 71.9557 19.5732 71.6482 19.5732 71.3791C19.5732 71.11 19.5732 70.887 19.5732 70.7025L19.0985 70.9178L18.88 71.0331C18.8501 71.0386 18.8195 71.0386 18.7896 71.0331H18.7218C18.7044 71.0247 18.6897 71.0117 18.6791 70.9955C18.6685 70.9792 18.6624 70.9603 18.6615 70.9408C18.6578 70.8948 18.6578 70.8485 18.6615 70.8024C18.6615 70.7409 18.6615 70.6794 18.6615 70.6025L18.8197 70.4949L18.9779 70.4027L19.204 70.2873L19.5431 70.0951C19.5431 69.8107 19.5431 69.5569 19.5431 69.3263C19.5431 69.0956 19.5431 68.888 19.5431 68.6805C19.5431 68.4729 19.5431 68.2499 19.4979 68.027C19.4526 67.804 19.4526 67.5349 19.43 67.2581C19.43 67.2581 19.3698 67.2581 19.2567 67.2581C19.1243 67.3126 18.9958 67.3769 18.8725 67.4503C18.7224 67.5397 18.5789 67.6399 18.443 67.7502C18.3222 67.8453 18.2199 67.9626 18.1416 68.0962C18.0849 68.1585 18.0368 68.2283 17.9984 68.3037C17.9984 68.3729 17.9456 68.4268 17.9306 68.4729C17.9155 68.519 17.9306 68.5421 17.8778 68.5498C17.8251 68.5575 17.8778 68.5498 17.81 68.4652C17.8303 68.2574 17.8918 68.056 17.9909 67.8732C18.0936 67.688 18.2261 67.5217 18.3827 67.3811C18.5317 67.2362 18.699 67.1121 18.88 67.0121C19.0474 66.9103 19.224 66.8254 19.4074 66.7584C19.4152 66.6894 19.4152 66.6198 19.4074 66.5508C19.3956 66.5055 19.3956 66.4578 19.4074 66.4124C19.4761 66.3824 19.5377 66.3379 19.5883 66.2817C19.6712 66.2048 19.7239 66.1664 19.7616 66.1664C19.7643 66.2125 19.7643 66.2587 19.7616 66.3048C19.7573 66.3457 19.7573 66.3869 19.7616 66.4278V66.5354C19.9806 66.4106 20.221 66.3297 20.4699 66.2971C20.72 66.264 20.9733 66.264 21.2234 66.2971C21.4473 66.3201 21.6661 66.3798 21.8714 66.4739C22.0265 66.5314 22.1607 66.636 22.2557 66.7738C22.3354 66.8825 22.3914 67.0073 22.42 67.1399C22.4486 67.2725 22.4491 67.4098 22.4214 67.5426C22.3684 67.8145 22.2689 68.0747 22.1276 68.3114C21.9801 68.5769 21.8004 68.8223 21.5926 69.0418C21.4294 69.2239 21.2558 69.3959 21.0727 69.5569C21.3213 69.5108 21.57 69.4724 21.8262 69.4493C22.077 69.4297 22.3289 69.4297 22.5797 69.4493C22.8 69.4599 23.0192 69.4882 23.2352 69.5339C23.4408 69.5744 23.6358 69.6582 23.8079 69.7799ZM19.8595 67.1582C19.8216 67.6366 19.8216 68.1174 19.8595 68.5959C19.8595 69.0418 19.9274 69.4954 19.9424 69.9721C20.1657 69.8737 20.38 69.7553 20.5829 69.6184C20.8077 69.4659 21.015 69.2879 21.2008 69.088C21.394 68.8774 21.5633 68.6452 21.7056 68.396C21.8534 68.1325 21.9602 67.8472 22.0221 67.5503C22.0334 67.476 22.0254 67.4 21.9989 67.3299C21.9725 67.2598 21.9285 67.1979 21.8714 67.1505C21.725 67.0325 21.551 66.9557 21.3665 66.9275C21.1168 66.8887 20.8628 66.8887 20.613 66.9275C20.3526 66.9684 20.099 67.046 19.8595 67.1582ZM20.063 73.8701C20.5266 73.7307 20.9719 73.5345 21.3892 73.2858C21.8284 73.0262 22.2444 72.7278 22.6324 72.3939C22.977 72.1043 23.2812 71.768 23.5366 71.3944C23.7364 71.135 23.8332 70.8084 23.8079 70.4795C23.8079 70.295 23.612 70.172 23.3106 70.1028C22.9586 70.0309 22.599 70.0051 22.2406 70.0259C21.8217 70.0507 21.4058 70.1125 20.9973 70.2104C20.6329 70.2825 20.2803 70.4067 19.95 70.5795V71.1715C19.95 71.456 19.95 71.7635 19.95 72.1018C19.95 72.4401 19.95 72.7706 19.9876 73.1012C20.0253 73.4318 20.0404 73.6856 20.063 73.8701Z" fill="#010101"/>
<path d="M25.2546 70.7332L25.4656 70.6717C25.5537 70.6424 25.6487 70.6424 25.7369 70.6717C25.8349 70.6618 25.9339 70.6732 26.0274 70.705C26.1209 70.7368 26.2067 70.7883 26.2794 70.8563C26.3999 70.987 26.4075 71.2407 26.2794 71.6251C26.146 71.9886 25.9494 72.3246 25.6992 72.6169C25.425 72.9018 25.1248 73.1592 24.8025 73.3857C24.8224 73.475 24.8671 73.5566 24.9312 73.6207C24.9954 73.6848 25.0763 73.7287 25.1642 73.7471C25.337 73.7704 25.5127 73.741 25.669 73.6625C25.8532 73.5805 26.0277 73.4773 26.189 73.355C26.3547 73.2268 26.4904 73.1115 26.5959 73.009L27.0027 72.6323C27.115 72.5128 27.2207 72.387 27.3192 72.2555C27.3192 72.2555 27.3192 72.2555 27.3644 72.2555C27.3676 72.2862 27.3676 72.3171 27.3644 72.3478V72.5169C27.347 72.5717 27.3216 72.6236 27.2891 72.6707C27.2626 72.7258 27.2297 72.7774 27.1911 72.8245L27.0178 73.009L26.7466 73.3088L26.3999 73.6471C26.2909 73.7531 26.1723 73.8483 26.0458 73.9316C25.92 74.017 25.7793 74.077 25.6314 74.1084C25.4619 74.1394 25.2884 74.1394 25.119 74.1084C24.9856 74.059 24.857 73.9972 24.7347 73.9239C24.6517 73.8667 24.578 73.7967 24.5162 73.7163C24.4717 73.6578 24.4314 73.5962 24.3956 73.5318C24.3757 73.4821 24.3606 73.4306 24.3504 73.378C24.3047 73.1609 24.2895 72.9383 24.3052 72.7168C24.3303 72.3449 24.4116 71.9793 24.5463 71.6328C24.6332 71.425 24.7445 71.2288 24.8779 71.0485C24.9843 70.9216 25.1119 70.8149 25.2546 70.7332ZM24.7272 72.9167C24.8549 72.8422 24.9782 72.7601 25.0964 72.6707C25.2402 72.566 25.3739 72.4475 25.4957 72.317C25.6162 72.1783 25.7246 72.0291 25.8197 71.8711C25.9094 71.7113 25.961 71.5322 25.9704 71.3483C26.0005 71.2665 26.0005 71.1764 25.9704 71.0946C25.9704 71.0946 25.9704 71.0946 25.9252 71.0946C25.8582 71.0608 25.7827 71.0486 25.7086 71.0596C25.6346 71.0706 25.5657 71.1042 25.5108 71.1561C25.3616 71.283 25.2365 71.4368 25.1416 71.6097C25.0223 71.8185 24.9263 72.0403 24.8553 72.2709C24.7816 72.4786 24.7384 72.6962 24.7272 72.9167Z" fill="#010101"/>
<path d="M28.5098 70.3104C28.6826 70.3368 28.852 70.3832 29.0146 70.4488C29.1274 70.4948 29.2318 70.5597 29.3235 70.641C29.3941 70.7031 29.455 70.7756 29.5044 70.8563C29.5496 70.9255 29.5948 70.9947 29.6325 71.0638C29.6702 71.133 29.5873 71.0638 29.5194 71.0638C29.4515 71.0274 29.3861 70.9863 29.3235 70.9408C29.1292 70.8208 28.9097 70.7496 28.6831 70.7332C28.4511 70.709 28.2168 70.7246 27.9898 70.7794C27.7969 70.8206 27.6193 70.9165 27.4775 71.0562C27.415 71.1156 27.372 71.1933 27.3545 71.2787C27.3369 71.364 27.3457 71.4528 27.3795 71.5328C27.4453 71.7279 27.5658 71.8991 27.7261 72.0249C27.8953 72.167 28.0769 72.2931 28.2686 72.4016L28.8714 72.7015C29.0437 72.778 29.21 72.868 29.3687 72.9705L29.7756 72.7476L30.077 72.5708L30.3483 72.4247L30.6723 72.2709H30.71C30.71 72.2709 30.6648 72.3247 30.612 72.3709C30.5356 72.4399 30.4551 72.5041 30.3709 72.5631L30.0544 72.7706L29.5647 73.0936C29.6508 73.1789 29.7267 73.2744 29.7907 73.378C29.8389 73.4665 29.8721 73.5627 29.8887 73.6625C29.9122 73.7706 29.8933 73.8837 29.8359 73.9777C29.5981 74.4046 29.2266 74.7377 28.781 74.9234C28.6578 74.9585 28.5275 74.9585 28.4043 74.9234C28.2784 74.893 28.1651 74.8231 28.0803 74.7235C28.037 74.668 28.0081 74.6023 27.9963 74.5324C27.9844 74.4626 27.99 74.3908 28.0124 74.3237C28.0613 74.1789 28.1382 74.0456 28.2385 73.9316C28.3477 73.7998 28.4688 73.6788 28.6002 73.5702L28.9619 73.2627C28.835 73.1418 28.6931 73.0385 28.5399 72.9552C28.3289 72.8398 28.1104 72.7091 27.8919 72.5631C27.6785 72.4306 27.479 72.276 27.2966 72.1018C27.1427 71.9815 27.0401 71.8052 27.0103 71.6097C26.9737 71.4334 26.9949 71.2497 27.0706 71.0869C27.1477 70.9153 27.264 70.7651 27.4096 70.6487C27.562 70.5184 27.7389 70.4216 27.9296 70.3642C28.1172 70.3054 28.3148 70.2871 28.5098 70.3104ZM28.4043 74.5313C28.5012 74.5699 28.6088 74.5699 28.7057 74.5313C28.8201 74.4908 28.9271 74.431 29.0221 74.3544C29.1231 74.2795 29.2143 74.1916 29.2934 74.093C29.3566 74.0172 29.4075 73.9316 29.4441 73.8393C29.4441 73.7778 29.4441 73.7086 29.3763 73.624C29.3137 73.5539 29.2428 73.4919 29.1653 73.4395C29.0601 73.5153 28.9595 73.5975 28.8639 73.6856C28.7582 73.7828 28.6599 73.8882 28.57 74.0008C28.4903 74.0914 28.4266 74.1955 28.3817 74.3083C28.3365 74.439 28.344 74.5159 28.4043 74.562V74.5313Z" fill="#010101"/>
<path d="M30.4538 70.5257C30.6236 70.5356 30.7923 70.5587 30.9586 70.5949C31.1426 70.6308 31.3238 70.6796 31.5012 70.7409C31.6691 70.798 31.8328 70.8674 31.9909 70.9485C32.1259 71.0199 32.2502 71.1105 32.3602 71.2176C32.4648 71.3266 32.5242 71.4725 32.5259 71.6251C32.5548 71.8291 32.5548 72.0362 32.5259 72.2402C32.4849 72.4706 32.4244 72.6969 32.3451 72.9167C32.2646 73.1361 32.1689 73.3493 32.0588 73.5549C31.9656 73.7252 31.8517 73.8828 31.7197 74.0238C31.6349 74.1286 31.5131 74.1949 31.3806 74.2084C31.2226 74.2134 31.0671 74.1677 30.936 74.0777C30.8183 73.9962 30.7204 73.8884 30.6497 73.7624C30.5775 73.6426 30.5217 73.5133 30.4839 73.378C30.4503 73.2626 30.4276 73.1442 30.4161 73.0244C30.4161 72.5938 30.4161 72.2017 30.4161 71.8711C30.4267 71.5903 30.4544 71.3104 30.499 71.0331C30.4783 70.9918 30.4531 70.9531 30.4237 70.9178L30.288 70.8255L30.2051 70.7486C30.2406 70.7303 30.2715 70.704 30.2956 70.6717C30.362 70.6412 30.4174 70.5901 30.4538 70.5257ZM30.8908 73.4549L30.9812 73.5625C31.0282 73.5965 31.0787 73.6249 31.1319 73.6471C31.1934 73.6661 31.2589 73.6661 31.3203 73.6471C31.4007 73.6238 31.4718 73.5754 31.5238 73.5087C31.7031 73.3251 31.8509 73.112 31.9608 72.8783C32.05 72.6827 32.1133 72.4758 32.1492 72.2632C32.1801 72.093 32.1801 71.9184 32.1492 71.7481C32.1282 71.626 32.067 71.5148 31.9759 71.4329L31.795 71.3329C31.7434 71.2998 31.6877 71.274 31.6293 71.2561C31.5431 71.2224 31.4551 71.1942 31.3655 71.1715L30.9586 71.0792C30.8793 71.3295 30.8238 71.5869 30.7929 71.8481C30.7607 72.0875 30.7456 72.3291 30.7477 72.5708C30.7514 72.7615 30.769 72.9516 30.8004 73.1397C30.8104 73.2497 30.8411 73.3567 30.8908 73.4549Z" fill="#010101"/>
<path d="M33.4527 68.7727C33.5356 68.7727 33.5808 68.7727 33.5959 68.9188C33.608 68.9631 33.6102 69.0095 33.6024 69.0547C33.5945 69.1 33.5769 69.1428 33.5507 69.1802C33.4822 69.231 33.4256 69.2966 33.3849 69.3724C33.3849 69.4262 33.302 69.457 33.2116 69.4724C33.1718 69.4647 33.1309 69.4647 33.091 69.4724C33.091 69.4724 33.0232 69.4032 33.0006 69.2648C33.0324 69.1656 33.0837 69.074 33.1513 68.9957C33.2319 68.8968 33.3356 68.8202 33.4527 68.7727ZM33.4527 70.3719C33.4527 70.764 33.5205 71.2022 33.5356 71.6712C33.5507 72.1402 33.5808 72.6399 33.6185 73.1551C33.6562 73.4165 33.6863 73.6241 33.7165 73.7701C33.7511 73.9065 33.7763 74.0453 33.7918 74.1853C33.6932 74.2135 33.589 74.2135 33.4904 74.1853C33.4185 74.1613 33.3501 74.1277 33.287 74.0854C33.287 73.9547 33.2493 73.7317 33.2342 73.4318C33.2191 73.132 33.189 72.8014 33.1739 72.44C33.1589 72.0787 33.1287 71.7404 33.1137 71.4021C33.0986 71.0638 33.0684 70.8024 33.0534 70.6333C33.0893 70.6188 33.1187 70.5915 33.1363 70.5564C33.1521 70.5232 33.1754 70.4943 33.2041 70.4718C33.2298 70.4453 33.2606 70.4244 33.2945 70.4103C33.3567 70.3837 33.4263 70.3809 33.4904 70.4027L33.4527 70.3719Z" fill="#010101"/>
<path d="M35.1029 70.4642V71.1561C35.1029 71.3868 35.1029 71.602 35.1029 71.8173C35.1029 72.0326 35.1029 72.2325 35.1029 72.4247C35.1029 72.6169 35.1029 72.7783 35.1029 72.9244C35.1122 72.8433 35.1299 72.7634 35.1557 72.6861C35.1933 72.5631 35.2461 72.417 35.3064 72.2478L35.5173 71.725C35.5864 71.5541 35.6696 71.3895 35.766 71.233C35.8431 71.1098 35.9342 70.9962 36.0373 70.8947C36.0699 70.8582 36.1122 70.8323 36.159 70.82C36.2059 70.8077 36.2552 70.8096 36.301 70.8255C36.4604 70.8964 36.5908 71.0213 36.6702 71.1792C36.7507 71.3488 36.8041 71.5305 36.8284 71.7174C36.8284 71.9172 36.8887 72.1402 36.9264 72.3862C36.9652 72.6513 37.0387 72.9099 37.1449 73.1551C37.182 73.2651 37.2535 73.3597 37.3484 73.4242C37.4341 73.4751 37.5251 73.5163 37.6196 73.5472C37.6872 73.5555 37.7555 73.5555 37.8231 73.5472C37.8758 73.5472 37.8909 73.5472 37.8758 73.5933C37.8079 73.6604 37.7254 73.71 37.635 73.7381C37.5445 73.7662 37.4489 73.7719 37.3559 73.7548C37.2009 73.6915 37.0728 73.5744 36.9942 73.4242C36.8805 73.2391 36.7965 73.0366 36.7456 72.8245C36.6777 72.5938 36.6175 72.3632 36.5647 72.1479C36.512 71.9326 36.4668 71.7481 36.4291 71.5943C36.3914 71.4406 36.3462 71.3637 36.301 71.3637C36.2558 71.3637 36.1503 71.4483 36.0599 71.579C35.9634 71.7367 35.8778 71.9011 35.8037 72.071C35.7072 72.2815 35.6217 72.4971 35.5475 72.7168L35.329 73.3703C35.2611 73.5779 35.2009 73.7548 35.1632 73.9008C35.1431 73.9919 35.1179 74.0817 35.0878 74.1699C35.0152 74.1626 34.942 74.1626 34.8693 74.1699C34.8693 74.1699 34.794 74.1699 34.7337 74.0469C34.7337 73.3242 34.7864 72.6399 34.7337 71.9941C34.681 71.3483 34.7337 70.7948 34.681 70.3181C34.681 70.2412 34.681 70.2104 34.7337 70.2104C34.7775 70.2131 34.8195 70.2292 34.8543 70.2566L34.9899 70.3565C35.0162 70.4031 35.0555 70.4406 35.1029 70.4642Z" fill="#010101"/>
<path d="M38.2751 73.6164C38.3414 73.5956 38.4123 73.5956 38.4786 73.6164L38.6519 73.6702C38.605 73.8643 38.5314 74.0506 38.4334 74.2237C38.3228 74.4331 38.1969 74.6335 38.0566 74.8234C37.9316 74.9961 37.793 75.158 37.6422 75.3078C37.5637 75.4097 37.4509 75.4782 37.3257 75.5C37.2881 75.5 37.3257 75.4001 37.3257 75.3001C37.3257 75.2002 37.484 75.0618 37.597 74.908C37.71 74.7542 37.823 74.5543 37.9436 74.3391C38.0886 74.1163 38.2003 73.8727 38.2751 73.6164Z" fill="#010101"/>
<path d="M43.0976 65.5436C43.1769 65.5312 43.2581 65.5454 43.3288 65.5843C43.3995 65.6231 43.4559 65.6844 43.4894 65.7589C43.5743 65.9436 43.6303 66.1408 43.6552 66.3432C43.6743 66.5812 43.6743 66.8203 43.6552 67.0582C43.6552 67.3043 43.6552 67.5042 43.6552 67.6579V68.9111C43.6552 69.1725 43.6552 69.4493 43.6552 69.7338C43.6552 70.0182 43.6552 70.272 43.6552 70.5026C43.6552 70.7332 43.6552 70.9331 43.6552 71.0869V71.3406C43.6953 71.2588 43.7208 71.1702 43.7305 71.0792L43.8661 70.5026C43.9189 70.2796 43.9792 70.0336 44.047 69.7799C44.1148 69.5262 44.1826 69.2955 44.258 69.0803C44.258 69.0803 44.258 68.9572 44.3333 68.7881C44.3832 68.6032 44.4487 68.4232 44.5292 68.2499C44.6079 68.0718 44.7148 67.9082 44.8457 67.7656C44.9034 67.6982 44.9785 67.6488 45.0625 67.623C45.1464 67.5971 45.2358 67.5959 45.3204 67.6195C45.4636 67.581 45.5917 67.6887 45.6971 67.9347C45.8288 68.2473 45.9224 68.5753 45.9759 68.9111C46.0513 69.3109 46.1191 69.7568 46.1719 70.2489C46.2246 70.7409 46.2698 71.2099 46.315 71.6482C46.3602 72.0864 46.3979 72.4785 46.4356 72.8091C46.4505 73.0203 46.4884 73.2292 46.5486 73.4318C46.6767 73.6087 46.8425 73.6164 47.0535 73.4703C47.3237 73.2643 47.5646 73.0211 47.7693 72.7476C47.7778 72.7933 47.7778 72.8403 47.7693 72.886C47.7668 72.9756 47.7489 73.0641 47.7165 73.1474C47.6651 73.2743 47.5966 73.3933 47.5131 73.501C47.3896 73.6659 47.2451 73.8132 47.0836 73.9393C46.9818 74.0104 46.8634 74.0528 46.7403 74.0623C46.6173 74.0717 46.4939 74.0479 46.3828 73.9931C46.2889 73.9353 46.2076 73.8583 46.1441 73.7671C46.0806 73.6758 46.0362 73.5722 46.0136 73.4626C46.0136 73.378 46.0136 73.1858 45.9383 72.8937C45.8629 72.6015 45.8705 72.2555 45.8328 71.8634C45.7951 71.4713 45.7499 71.0946 45.6971 70.6333C45.6444 70.172 45.5992 69.8106 45.5464 69.4493C45.5069 69.1517 45.4515 68.8566 45.3807 68.5651C45.3204 68.3345 45.2601 68.2269 45.2074 68.2422C45.1546 68.2576 45.1019 68.2422 45.0491 68.3114C44.9778 68.4164 44.9196 68.53 44.8758 68.6497C44.8156 68.7958 44.7553 68.9726 44.695 69.1648L44.5142 69.7568C44.4539 69.9567 44.4011 70.1336 44.3559 70.3027C44.3107 70.4718 44.273 70.6025 44.2429 70.7025C44.16 70.9793 44.0922 71.2407 44.0319 71.4713C43.9716 71.702 43.9264 71.948 43.8812 72.2402C43.836 72.5323 43.7833 72.8014 43.7456 73.132C43.7079 73.4626 43.6702 73.9008 43.6401 74.3314C43.4743 74.3314 43.3688 74.3314 43.3236 74.2699C43.2664 74.2055 43.1972 74.1532 43.1202 74.1161C43.1202 73.9546 43.1202 73.7086 43.1202 73.3473V72.171C43.1202 71.7404 43.1202 71.2868 43.1202 70.8178C43.1202 70.3488 43.1202 69.9029 43.1202 69.4954C43.1202 69.4954 43.1202 69.3878 43.1202 69.234C43.1202 69.0803 43.1202 68.8881 43.1202 68.6728C43.1202 68.4575 43.1202 68.2038 43.1202 67.904C43.1202 67.6041 43.1202 67.3811 43.1202 67.1351C43.1202 66.8891 43.1202 66.6738 43.0599 66.4816C43.0469 66.3332 42.9977 66.1905 42.9167 66.0664C42.8263 66.0126 42.7057 66.0664 42.5776 66.1818C42.4137 66.3485 42.2696 66.5343 42.1482 66.7353C41.9806 67.0062 41.8271 67.2859 41.6885 67.5734C41.5378 67.8886 41.3946 68.2038 41.2666 68.519C41.1385 68.8342 41.0254 69.1341 40.935 69.4185C40.8446 69.703 40.7843 69.926 40.7466 70.0874C40.7236 70.1549 40.6848 70.2156 40.6336 70.2643C40.5864 70.308 40.5331 70.3443 40.4754 70.3719C40.421 70.3859 40.364 70.3859 40.3096 70.3719C40.2862 70.3728 40.2631 70.3667 40.243 70.3545C40.2229 70.3422 40.2068 70.3242 40.1966 70.3027C40.2751 69.9774 40.3707 69.6566 40.4829 69.3417C40.6035 68.9957 40.7391 68.642 40.8973 68.2807C41.0556 67.9193 41.2063 67.581 41.3796 67.2428C41.5381 66.9336 41.7169 66.6356 41.9146 66.3509C42.0704 66.1196 42.2525 65.908 42.4571 65.7205C42.5466 65.6484 42.6495 65.5955 42.7596 65.5651C42.8697 65.5347 42.9846 65.5274 43.0976 65.5436Z" fill="#010101"/>
<path d="M47.7994 70.5257C47.9692 70.5351 48.138 70.5582 48.3043 70.5949C48.4904 70.6317 48.6742 70.6805 48.8543 70.7409C49.0198 70.798 49.181 70.8674 49.3366 70.9485C49.4715 71.0199 49.5958 71.1105 49.7058 71.2176C49.8104 71.3266 49.8698 71.4725 49.8715 71.6251C49.9007 71.829 49.9007 72.0362 49.8715 72.2402C49.8243 72.4699 49.7613 72.696 49.6832 72.9167C49.6058 73.1374 49.51 73.3509 49.3968 73.5549C49.3037 73.7252 49.1898 73.8828 49.0578 74.0238C48.9748 74.1268 48.856 74.1929 48.7262 74.2084C48.5657 74.2151 48.4073 74.1693 48.2741 74.0777C48.16 73.992 48.0629 73.885 47.9878 73.7624C47.9156 73.6426 47.8598 73.5133 47.822 73.378C47.7941 73.2617 47.774 73.1435 47.7617 73.0244C47.7397 72.6403 47.7397 72.2552 47.7617 71.8711C47.7723 71.5903 47.8 71.3104 47.8446 71.0331C47.8446 70.987 47.7994 70.9562 47.7768 70.9178L47.7015 70.8255L47.6186 70.7486C47.7068 70.6893 47.7835 70.6137 47.8446 70.5257H47.7994ZM48.2364 73.4549C48.2647 73.4947 48.2976 73.5308 48.3344 73.5625C48.3801 73.5984 48.4309 73.6269 48.4851 73.6471C48.5439 73.6665 48.6072 73.6665 48.6659 73.6471C48.7477 73.6222 48.8208 73.5742 48.8769 73.5087C49.0515 73.3228 49.1965 73.1101 49.3064 72.8783C49.3956 72.6827 49.459 72.4758 49.4948 72.2632C49.5295 72.0933 49.5295 71.918 49.4948 71.7481C49.4769 71.6249 49.4152 71.5127 49.3215 71.4329L49.1256 71.3329C49.0712 71.3 49.013 71.2742 48.9523 71.2561C48.8688 71.2222 48.7832 71.194 48.6961 71.1715L48.3043 71.0792C48.2283 71.3304 48.1729 71.5875 48.1385 71.8481C48.1211 72.0886 48.1211 72.3302 48.1385 72.5708C48.1362 72.7614 48.1514 72.9519 48.1837 73.1397C48.1886 73.2466 48.2064 73.3524 48.2364 73.4549Z" fill="#010101"/>
<path d="M51.9211 70.5487L52.9458 70.4718L53.9857 70.3796C54.0225 70.3803 54.0581 70.3936 54.0868 70.4172C54.1154 70.4409 54.1355 70.4736 54.1439 70.5103C54.1439 70.5872 54.1439 70.6333 54.046 70.6487C53.7521 70.6487 53.4055 70.7256 53.0212 70.7871C52.6505 70.8391 52.2831 70.9136 51.9211 71.01C51.9211 71.2637 51.9211 71.5251 51.9211 71.7789C51.9211 72.0326 51.9211 72.3094 51.9211 72.5477C51.9211 72.786 51.9211 73.0551 51.9964 73.3165C52.0236 73.5466 52.0819 73.7717 52.1697 73.9854C52.2501 74.1064 52.3705 74.1937 52.5088 74.2314C52.6116 74.266 52.7225 74.266 52.8253 74.2314C52.9277 74.1931 53.0222 74.1358 53.1041 74.0623C53.1808 73.9893 53.2537 73.9123 53.3226 73.8316C53.3829 73.7778 53.4281 73.7778 53.4658 73.8316C53.5034 73.8855 53.4658 73.9777 53.3603 74.093C53.3039 74.1584 53.2435 74.22 53.1794 74.2776C53.102 74.3436 53.0158 74.398 52.9232 74.439C52.8164 74.4887 52.7014 74.5174 52.5842 74.5236C52.4497 74.5492 52.3117 74.5492 52.1773 74.5236C52.0782 74.4878 51.9892 74.4278 51.9183 74.3487C51.8473 74.2696 51.7965 74.1738 51.7704 74.07C51.6712 73.7815 51.6055 73.4822 51.5745 73.1781C51.5293 72.8322 51.4991 72.4785 51.484 72.1095C51.469 71.7404 51.4841 71.4098 51.4238 71.1177L50.6703 71.2022L50.3161 71.2484C50.2693 71.2618 50.2198 71.2618 50.173 71.2484L50.0524 71.0792C50.0635 71.0416 50.0635 71.0015 50.0524 70.9639V70.8716C50.0638 70.8421 50.0818 70.8157 50.1051 70.7948C50.154 70.765 50.2075 70.7442 50.2634 70.7332C50.4371 70.6978 50.6137 70.6798 50.7908 70.6794C51.0153 70.6771 51.2394 70.6591 51.4614 70.6256C51.4614 70.3642 51.4614 70.1566 51.4614 70.0105C51.4614 69.8645 51.4614 69.7338 51.4614 69.6261C51.4614 69.5185 51.4614 69.4032 51.4614 69.2955C51.4614 69.1879 51.4614 69.0495 51.4614 68.8804C51.4522 68.864 51.4473 68.8454 51.4473 68.8265C51.4473 68.8077 51.4522 68.7891 51.4614 68.7727C51.5113 68.764 51.5623 68.764 51.6121 68.7727C51.6646 68.7653 51.7179 68.7653 51.7704 68.7727C51.8109 68.7906 51.8433 68.8236 51.8608 68.865C51.8951 68.9717 51.9129 69.0833 51.9135 69.1956C51.9135 69.334 51.9135 69.4877 51.9135 69.6492C51.9135 69.8106 51.9135 69.9721 51.9135 70.1336C51.9135 70.295 51.9286 70.4411 51.9211 70.5487Z" fill="#010101"/>
<path d="M53.7069 70.3104C53.7069 70.2335 53.7069 70.2181 53.8199 70.2489L54.0836 70.3719C54.0836 70.5564 54.1364 70.7102 54.1515 70.8178C54.1584 70.9228 54.1584 71.0281 54.1515 71.133V71.4483C54.1515 71.5636 54.1515 71.7173 54.1515 71.9096C54.2225 71.727 54.3109 71.5519 54.4152 71.3868C54.5234 71.223 54.6616 71.082 54.8221 70.9716C55.0009 70.8506 55.2002 70.7646 55.4098 70.7179C55.6825 70.6624 55.9613 70.6443 56.2387 70.664C56.2397 70.6955 56.2342 70.7269 56.2225 70.756C56.2108 70.7852 56.1932 70.8115 56.1708 70.8332C56.0777 70.8924 55.9715 70.9267 55.8619 70.9331C55.6475 70.9713 55.4427 71.0523 55.2591 71.1715C55.0914 71.2893 54.9395 71.4289 54.807 71.5866C54.6882 71.7409 54.587 71.9086 54.5056 72.0864C54.4611 72.2612 54.4259 72.4382 54.4001 72.6169C54.4001 72.6938 54.4001 72.7937 54.4001 72.9321C54.4001 73.0705 54.4001 73.2089 54.4001 73.3626C54.4001 73.5164 54.4001 73.6625 54.4001 73.8009C54.3858 73.9183 54.3858 74.0371 54.4001 74.1545C54.4036 74.1641 54.4049 74.1744 54.4041 74.1845C54.4032 74.1947 54.4001 74.2046 54.3951 74.2134C54.39 74.2222 54.3831 74.2298 54.3749 74.2355C54.3666 74.2413 54.3572 74.2452 54.3474 74.2468C54.2999 74.2702 54.249 74.2858 54.1967 74.2929C54.145 74.3081 54.0901 74.3081 54.0384 74.2929C53.9932 74.2929 53.9706 74.2929 53.9706 74.2084C53.9895 73.4798 53.9669 72.7508 53.9028 72.0249C53.8124 71.3637 53.7596 70.8178 53.7069 70.3104Z" fill="#010101"/>
<path d="M56.9997 70.7332L57.2032 70.6717C57.2938 70.6423 57.3913 70.6423 57.4819 70.6717C57.5789 70.6609 57.677 70.6719 57.7694 70.7037C57.8618 70.7356 57.9463 70.7877 58.0169 70.8563C58.145 70.987 58.1526 71.2407 58.0169 71.6251C57.8821 71.993 57.6773 72.3301 57.4141 72.6169C57.1433 72.9054 56.8426 73.1632 56.5175 73.3857C56.6003 73.601 56.7209 73.724 56.8791 73.7471C57.0519 73.7714 57.2279 73.7419 57.384 73.6625C57.5699 73.584 57.7448 73.4806 57.9039 73.355C58.0482 73.2475 58.1866 73.132 58.3183 73.009C58.4841 72.8629 58.6197 72.7322 58.7177 72.6323C58.8347 72.515 58.943 72.3891 59.0417 72.2555C59.0488 72.2859 59.0488 72.3175 59.0417 72.3478C59.0417 72.3478 59.0417 72.4477 59.0417 72.5169L58.9663 72.6707C58.9372 72.726 58.9018 72.7776 58.8609 72.8245C58.8094 72.8918 58.7513 72.9536 58.6876 73.009L58.4238 73.3088L58.0772 73.6471C57.9671 73.755 57.8458 73.8504 57.7155 73.9316C57.5931 74.0182 57.4547 74.0784 57.3086 74.1084C57.1392 74.1394 56.9657 74.1394 56.7963 74.1084C56.6629 74.059 56.5343 73.9972 56.412 73.9239C56.3269 73.8666 56.2507 73.7967 56.1859 73.7163C56.1409 73.6598 56.1029 73.5979 56.0729 73.5318C56.053 73.4821 56.0379 73.4306 56.0277 73.378C55.979 73.1614 55.9612 72.9387 55.9749 72.7168C56.0034 72.3455 56.0846 71.9803 56.2161 71.6328C56.3082 71.4262 56.4219 71.2303 56.5551 71.0485C56.6817 70.9148 56.8328 70.8077 56.9997 70.7332ZM56.4723 72.9167C56.5985 72.8437 56.7193 72.7615 56.8339 72.6707C56.9807 72.5699 57.1149 72.4512 57.2333 72.317C57.3585 72.1822 57.4673 72.0325 57.5573 71.8711C57.6503 71.7128 57.7022 71.5328 57.708 71.3483C57.7244 71.3081 57.7328 71.265 57.7328 71.2215C57.7328 71.1779 57.7244 71.1348 57.708 71.0946C57.708 71.0946 57.708 71.0946 57.6553 71.0946C57.5893 71.0615 57.5151 71.0496 57.4424 71.0606C57.3697 71.0716 57.302 71.1049 57.2484 71.1561C57.0967 71.2826 56.969 71.4363 56.8716 71.6097C56.7548 71.8188 56.6613 72.0406 56.5928 72.2709C56.5217 72.479 56.4811 72.6966 56.4723 72.9167Z" fill="#010101"/>
<path d="M63.0051 65.6974C63.0497 65.7396 63.0833 65.7925 63.1031 65.8512C63.1136 65.9122 63.1136 65.9747 63.1031 66.0357C63.1071 66.1125 63.1071 66.1895 63.1031 66.2663C63.1031 66.3509 63.1031 66.4509 63.1031 66.5662C63.5175 66.7968 63.9696 67.0275 64.4518 67.2658C64.9171 67.4971 65.3699 67.7537 65.8082 68.0346C66.2088 68.2915 66.5781 68.596 66.9083 68.9419C67.2071 69.2421 67.4207 69.6194 67.5261 70.0336C67.6033 70.5126 67.5645 71.0035 67.4131 71.4636C67.2505 71.9214 66.9935 72.3382 66.6596 72.6861C66.3074 73.0659 65.8915 73.3784 65.4314 73.6087C64.9377 73.8655 64.4096 74.0468 63.8641 74.1469C63.669 74.173 63.4715 74.173 63.2764 74.1469C63.0995 74.1335 62.9262 74.0893 62.764 74.0162C62.6099 73.9487 62.4714 73.8492 62.3571 73.724C62.2428 73.6032 62.1599 73.4552 62.116 73.2935C62.1062 73.2062 62.122 73.1179 62.1612 73.0397C62.184 72.9808 62.2233 72.93 62.2742 72.8937C62.2893 72.8856 62.3061 72.8814 62.3232 72.8814C62.3403 72.8814 62.3571 72.8856 62.3722 72.8937C62.3722 72.8937 62.3722 72.9398 62.3722 73.009C62.3642 73.1518 62.3983 73.2937 62.4701 73.4165C62.5264 73.5179 62.6101 73.6006 62.7113 73.6548C62.8052 73.7126 62.9067 73.7566 63.0127 73.7855L63.2764 73.8547C63.2764 73.601 63.201 73.2858 63.1709 72.9014C63.1408 72.5169 63.1031 72.1325 63.0654 71.6712C63.0277 71.2099 62.9976 70.7794 62.9599 70.3181C62.9222 69.8568 62.8996 69.4109 62.8695 68.9803C62.8394 68.5498 62.8017 68.15 62.764 67.7963C62.7263 67.4427 62.6962 67.1505 62.6585 66.9275L62.1461 66.6738L61.8146 66.4893L61.5433 66.3509C61.433 66.3026 61.3197 66.2615 61.2043 66.2279C61.1364 66.1433 61.1214 66.0818 61.1515 66.028C61.1811 65.9621 61.2014 65.8922 61.2118 65.8204C61.4152 65.8742 61.5735 65.9204 61.694 65.9665C61.8009 65.9998 61.9043 66.0436 62.003 66.0972L62.2592 66.2202C62.3681 66.2684 62.4818 66.3045 62.5982 66.3278V66.1587C62.5982 66.1587 62.5982 66.0895 62.5982 66.0664C62.6018 66.0435 62.6018 66.0202 62.5982 65.9972V65.905C62.6887 65.7512 62.7866 65.6974 63.0051 65.6974ZM63.4422 70.0336C63.4422 70.172 63.4422 70.3565 63.4949 70.5718C63.5476 70.7871 63.4949 71.0254 63.5552 71.2714L63.623 72.0403C63.623 72.3017 63.6682 72.5477 63.6833 72.8091C63.6983 73.0705 63.6833 73.2473 63.7285 73.4242C63.7737 73.601 63.7285 73.7394 63.7285 73.8163C63.9836 73.8325 64.2394 73.7985 64.482 73.7163C64.8328 73.6165 65.1659 73.4608 65.4691 73.255C65.8401 73.0191 66.1731 72.7261 66.4562 72.3862C66.7697 72.0219 67.0057 71.5952 67.1494 71.133C67.2108 70.7922 67.1901 70.4413 67.0891 70.1105C66.9952 69.8108 66.8469 69.5317 66.6521 69.2878C66.4325 69.0369 66.1788 68.8194 65.8986 68.642C65.6122 68.4498 65.3184 68.2653 65.0094 68.0962C64.7005 67.927 64.384 67.7732 64.06 67.6272C63.736 67.4811 63.4422 67.3427 63.1558 67.1966C63.1482 67.3144 63.1482 67.4325 63.1558 67.5503C63.1558 67.7143 63.1709 67.8988 63.201 68.1038C63.201 68.3114 63.201 68.519 63.2462 68.742C63.2915 68.9649 63.2462 69.1725 63.299 69.357C63.3517 69.5416 63.299 69.703 63.299 69.826C63.299 69.949 63.4422 70.0182 63.4422 70.0336Z" fill="#010101"/>
<path d="M68.8372 70.7332L69.0407 70.6717C69.1314 70.6428 69.2287 70.6428 69.3195 70.6717C69.4164 70.661 69.5145 70.6719 69.6069 70.7037C69.6993 70.7356 69.7838 70.7877 69.8545 70.8563C69.9826 70.987 69.9901 71.2407 69.8545 71.6251C69.7233 71.988 69.5294 72.324 69.2818 72.6169C69.0076 72.9018 68.7074 73.1592 68.3851 73.3857C68.4605 73.601 68.581 73.724 68.7393 73.7471C68.9145 73.771 69.0928 73.7416 69.2517 73.6625C69.4343 73.5821 69.6064 73.4788 69.764 73.355C69.9083 73.2475 70.0467 73.132 70.1785 73.009C70.3442 72.8629 70.4799 72.7322 70.5778 72.6323C70.6948 72.515 70.8031 72.3891 70.9018 72.2555C70.9095 72.2858 70.9095 72.3175 70.9018 72.3478V72.5169C70.8813 72.5704 70.8561 72.6219 70.8265 72.6707C70.7975 72.7243 70.7647 72.7757 70.7285 72.8245C70.6721 72.8898 70.6117 72.9514 70.5477 73.009L70.284 73.3088L69.9373 73.6471C69.8283 73.7531 69.7097 73.8483 69.5832 73.9316C69.4574 74.017 69.3167 74.077 69.1688 74.1084C68.9993 74.1394 68.8258 74.1394 68.6564 74.1084C68.5231 74.059 68.3944 73.9972 68.2721 73.9239C68.187 73.8666 68.1108 73.7967 68.0461 73.7163C68.0037 73.6579 67.9659 73.5962 67.933 73.5318C67.9131 73.4821 67.898 73.4306 67.8878 73.378C67.8429 73.1608 67.8251 72.9386 67.8351 72.7168C67.8676 72.3461 67.9487 71.9815 68.0762 71.6328C68.1702 71.4368 68.2839 71.2513 68.4153 71.0792C68.5324 70.9369 68.6758 70.8193 68.8372 70.7332ZM68.3098 72.9167C68.4375 72.8422 68.5608 72.7601 68.679 72.6707C68.8219 72.5678 68.9533 72.4492 69.0708 72.317C69.1961 72.1804 69.3072 72.031 69.4024 71.8711C69.492 71.7113 69.5436 71.5322 69.5531 71.3483C69.5831 71.2665 69.5831 71.1764 69.5531 71.0946C69.5531 71.0946 69.5531 71.0946 69.5079 71.0946C69.4408 71.0608 69.3653 71.0486 69.2913 71.0596C69.2173 71.0706 69.1483 71.1042 69.0934 71.1561C68.9442 71.283 68.8191 71.4368 68.7242 71.6097C68.6049 71.8185 68.5089 72.0403 68.4379 72.2709C68.3642 72.4786 68.321 72.6962 68.3098 72.9167Z" fill="#010101"/>
<path d="M73.2377 70.1797L73.3432 70.2335C73.3862 70.2572 73.4266 70.2856 73.4637 70.3181C73.4637 70.3565 73.5165 70.3796 73.5165 70.4103C73.4236 71.0618 73.2462 71.6979 72.989 72.3017C72.729 72.9302 72.4031 73.5283 72.017 74.0854C71.9817 74.1316 71.9373 74.1698 71.8867 74.1976C71.8361 74.2254 71.7804 74.2422 71.7232 74.2468C71.6804 74.2477 71.6384 74.2348 71.6033 74.2099C71.5681 74.1851 71.5415 74.1496 71.5272 74.1084C71.4597 73.8951 71.4093 73.6766 71.3765 73.4549C71.3313 73.1884 71.2861 72.9039 71.2409 72.6015C71.1957 72.3017 71.1505 72.0018 71.0902 71.6943C71.0299 71.3868 70.9772 71.0792 70.9772 70.8255C70.932 70.6794 70.9772 70.6025 70.9772 70.5718C70.9772 70.541 71.143 70.5718 71.3238 70.6256C71.3238 70.6256 71.3765 70.7332 71.4067 70.9408L71.5197 71.7097C71.5649 72.0095 71.6177 72.3247 71.6779 72.6476C71.73 72.9398 71.803 73.2276 71.8965 73.5087C71.8965 73.5087 71.9718 73.5087 72.0472 73.3627C72.1225 73.2166 72.2054 73.1012 72.2958 72.9167C72.3862 72.7322 72.4993 72.5169 72.6048 72.2786C72.7102 72.0403 72.8157 71.7865 72.9062 71.5098C72.9966 71.233 73.0795 71.01 73.1397 70.7409C73.1894 70.5573 73.2221 70.3695 73.2377 70.1797Z" fill="#010101"/>
<path d="M74.3453 70.5257C74.5176 70.5355 74.6889 70.5587 74.8577 70.5949C75.0412 70.6327 75.2223 70.6815 75.4002 70.7409C75.5657 70.798 75.7269 70.8674 75.8825 70.9485C76.0174 71.0199 76.1417 71.1105 76.2517 71.2176C76.356 71.3275 76.4176 71.4723 76.425 71.6251C76.4501 71.8293 76.4501 72.0359 76.425 72.2402C76.3777 72.4699 76.3148 72.696 76.2366 72.9167C76.1593 73.1374 76.0635 73.3509 75.9503 73.5549C75.8621 73.7264 75.7505 73.8843 75.6188 74.0238C75.534 74.1286 75.4121 74.1949 75.2797 74.2084C75.1217 74.2134 74.9662 74.1677 74.8351 74.0777C74.7169 73.9944 74.6168 73.8871 74.5412 73.7624C74.4716 73.6422 74.4184 73.5129 74.383 73.378C74.3494 73.2626 74.3267 73.1442 74.3152 73.0244C74.3152 72.5938 74.3152 72.2017 74.3152 71.8711C74.3258 71.5903 74.3535 71.3104 74.3981 71.0331C74.3981 70.987 74.3529 70.9562 74.3303 70.9178L74.2549 70.8255L74.172 70.7486C74.2098 70.7306 74.2432 70.7043 74.27 70.6717C74.3052 70.6292 74.3309 70.5793 74.3453 70.5257ZM74.7824 73.4549C74.8106 73.4947 74.8435 73.5308 74.8803 73.5625C74.926 73.5984 74.9769 73.6269 75.031 73.6471C75.0924 73.6666 75.1581 73.6666 75.2194 73.6471C75.2979 73.6199 75.368 73.5722 75.4228 73.5087C75.5995 73.3245 75.7447 73.1114 75.8523 72.8783C75.9415 72.6827 76.0049 72.4758 76.0407 72.2632C76.0713 72.0929 76.0713 71.9184 76.0407 71.7481C76.0177 71.625 75.9538 71.5137 75.8599 71.4329L75.7016 71.3252C75.6473 71.2923 75.589 71.2665 75.5283 71.2484C75.4448 71.2145 75.3593 71.1863 75.2721 71.1638L74.8577 71.0792C74.7759 71.3292 74.7179 71.5867 74.6844 71.8481C74.667 72.0886 74.667 72.3302 74.6844 72.5708C74.6822 72.7614 74.6973 72.9519 74.7296 73.1397C74.7346 73.2466 74.7523 73.3524 74.7824 73.4549Z" fill="#010101"/>
<path d="M77.3518 68.7727C77.4272 68.7727 77.4799 68.7727 77.495 68.9188C77.5051 68.9632 77.5063 69.0093 77.4986 69.0542C77.4908 69.0991 77.4742 69.142 77.4498 69.1802C77.3795 69.2312 77.3205 69.2967 77.2765 69.3724C77.2765 69.4262 77.2011 69.457 77.1107 69.4724C77.0683 69.4646 77.025 69.4646 76.9826 69.4724C76.9826 69.4724 76.9148 69.4032 76.8922 69.2648C76.9278 69.1674 76.9787 69.0765 77.0429 68.9957C77.1256 68.8958 77.2319 68.819 77.3518 68.7727ZM77.3895 70.3719C77.3895 70.764 77.4573 71.2022 77.4724 71.6712C77.4875 72.1402 77.5176 72.6399 77.5553 73.1551C77.5553 73.4165 77.6231 73.6241 77.6532 73.7701C77.6834 73.9162 77.706 74.0546 77.721 74.1853C77.6224 74.2131 77.5183 74.2131 77.4196 74.1853C77.349 74.1583 77.2809 74.1249 77.2162 74.0854C77.2162 73.9547 77.2162 73.7317 77.1634 73.4318C77.1107 73.132 77.1634 72.8014 77.1032 72.44C77.0429 72.0787 77.1032 71.7404 77.0429 71.4021C76.9826 71.0638 77.0429 70.8024 76.9901 70.6333C77.024 70.6185 77.051 70.591 77.0655 70.5564L77.1333 70.4718C77.1606 70.4436 77.1942 70.4225 77.2313 70.4103C77.2822 70.3922 77.3371 70.3895 77.3895 70.4027V70.3719Z" fill="#010101"/>
<path d="M78.5122 70.3104C78.5122 70.2335 78.5122 70.2181 78.6328 70.2489L78.889 70.3719C78.889 70.5564 78.9417 70.7102 78.9643 70.8178C78.9869 70.9255 78.9643 71.0331 78.9643 71.133C78.9643 71.233 78.9643 71.3406 78.9643 71.4483C78.9643 71.5559 78.9643 71.7173 78.9643 71.9096C79.0349 71.7253 79.1259 71.5499 79.2356 71.3868C79.3387 71.2213 79.4748 71.0799 79.6349 70.9716C79.8158 70.8493 80.0178 70.7631 80.2302 70.7179C80.5004 70.6624 80.7766 70.6443 81.0515 70.664C81.0526 70.6955 81.0471 70.7269 81.0354 70.756C81.0237 70.7852 81.0061 70.8115 80.9837 70.8332C80.8935 70.8927 80.7896 70.9271 80.6823 70.9331C80.4656 70.9713 80.2582 71.0522 80.072 71.1715C79.905 71.2874 79.7553 71.4272 79.6274 71.5866C79.5033 71.7371 79.4017 71.9055 79.326 72.0864C79.2521 72.2431 79.1892 72.405 79.1376 72.5708C79.1376 72.6476 79.1376 72.7476 79.1376 72.886C79.1295 73.0294 79.1295 73.1731 79.1376 73.3165C79.1376 73.4703 79.1376 73.6164 79.1376 73.7548C79.1284 73.8673 79.1284 73.9805 79.1376 74.093C79.1411 74.1026 79.1424 74.1129 79.1416 74.123C79.1407 74.1332 79.1376 74.143 79.1326 74.1519C79.1275 74.1607 79.1206 74.1683 79.1124 74.174C79.1041 74.1798 79.0947 74.1837 79.0849 74.1853C79.0377 74.2097 78.9867 74.2253 78.9342 74.2314C78.8825 74.2466 78.8276 74.2466 78.7759 74.2314C78.7307 74.2314 78.7081 74.2314 78.7081 74.1469C78.727 73.4183 78.7044 72.6892 78.6403 71.9634C78.6102 71.3637 78.5574 70.8178 78.5122 70.3104Z" fill="#010101"/>
<path d="M110.679 27.6018C110.192 28.612 109.47 29.4855 108.577 30.1467C107.57 30.8654 106.44 31.3868 105.246 31.6843C103.801 32.0545 102.314 32.2328 100.823 32.2148C99.9418 32.2148 99.0678 32.2148 98.2012 32.1072C97.3347 31.9995 96.4682 31.9303 95.6092 31.792C95.4353 31.7507 95.2592 31.7199 95.0817 31.6997L94.6146 31.6074C94.0344 31.4998 93.5446 31.4075 93.1076 31.3153C92.6705 31.223 92.354 31.1538 92.1657 31.1154C91.9767 31.0685 91.8076 30.9606 91.6834 30.8078C91.554 30.6619 91.4701 30.4799 91.4423 30.285L90.9676 24.4727C90.9357 24.3084 90.9523 24.1381 91.0153 23.9834C91.0784 23.8287 91.185 23.6966 91.3217 23.6039C91.4586 23.51 91.6179 23.4561 91.7826 23.448C91.9473 23.4398 92.111 23.4778 92.2561 23.5578C93.5834 24.1954 94.9443 24.7576 96.3325 25.2415C97.9048 25.8089 99.5555 26.1177 101.223 26.1564C101.961 26.1854 102.697 26.0706 103.393 25.8181C103.943 25.5952 104.222 25.2723 104.222 24.8417C104.222 24.6188 104.063 24.3958 103.739 24.1651C102.613 23.6511 101.42 23.3017 100.198 23.1272C96.7369 22.4148 94.3383 21.4871 93.0021 20.3441C92.2733 19.7172 91.6967 18.9265 91.3176 18.0341C90.9384 17.1417 90.7671 16.1719 90.8169 15.2006C90.7532 14.0759 90.965 12.9528 91.4334 11.9326C91.9017 10.9124 92.6118 10.0274 93.4994 9.35746C95.2877 8.03507 97.7818 7.37131 100.982 7.36618C102.481 7.37691 103.976 7.52097 105.45 7.79673C106.203 7.94281 106.874 8.07351 107.447 8.19652C108.019 8.31953 108.487 8.44255 108.871 8.56556C109.043 8.61323 109.194 8.7189 109.3 8.8654C109.422 9.00255 109.501 9.174 109.526 9.35746L110.129 14.7393C110.155 14.9086 110.135 15.082 110.071 15.2406C110.008 15.3992 109.903 15.5369 109.767 15.6388C109.637 15.744 109.477 15.805 109.311 15.8133C109.145 15.8216 108.981 15.7767 108.841 15.6849C108.215 15.3774 107.567 15.0929 106.889 14.8315C106.211 14.5701 105.503 14.3164 104.757 14.0627C103.463 13.663 102.122 13.4483 100.771 13.4246C100.072 13.4031 99.3727 13.4728 98.691 13.6322C98.1937 13.7782 97.9375 14.0243 97.9375 14.401C97.9375 14.7777 98.1862 14.9853 98.691 15.1698C99.1959 15.3543 99.7082 15.5158 100.364 15.708C101.135 15.9285 101.917 16.1081 102.707 16.2462C105.972 16.9228 108.205 17.8684 109.406 19.0832C110.069 19.7279 110.591 20.5085 110.938 21.3738C111.285 22.239 111.448 23.1694 111.418 24.1036C111.441 25.3124 111.188 26.5101 110.679 27.6018Z" fill="#F27D21"/>
<path d="M113.633 31.8688C113.395 31.863 113.168 31.7639 113 31.5921C112.832 31.4204 112.735 31.1891 112.729 30.9462V8.8039C112.735 8.56105 112.832 8.32977 113 8.158C113.168 7.98623 113.395 7.88715 113.633 7.8813H131.114C131.232 7.88004 131.348 7.90404 131.456 7.95173C131.564 7.99941 131.66 8.06972 131.74 8.15808C131.826 8.2411 131.894 8.34124 131.941 8.45231C131.988 8.56339 132.011 8.68305 132.011 8.8039V13.2708C132.013 13.3953 131.99 13.5188 131.943 13.6338C131.896 13.7488 131.827 13.8529 131.74 13.9397C131.66 14.028 131.564 14.0984 131.456 14.146C131.348 14.1937 131.232 14.2177 131.114 14.2165H121.04V16.6614H129.645C129.762 16.6601 129.879 16.6841 129.987 16.7318C130.094 16.7795 130.191 16.8498 130.27 16.9381C130.356 17.0211 130.425 17.1213 130.472 17.2324C130.518 17.3434 130.542 17.4631 130.542 17.5839V21.9894C130.543 22.115 130.52 22.2397 130.474 22.356C130.427 22.4722 130.358 22.5777 130.27 22.6659C130.189 22.7518 130.092 22.8199 129.985 22.8662C129.877 22.9124 129.762 22.9359 129.645 22.935H121.04V25.5106H131.92C132.041 25.5075 132.161 25.5298 132.272 25.5761C132.384 25.6224 132.484 25.6917 132.569 25.7797C132.653 25.8697 132.719 25.9758 132.763 26.0919C132.807 26.208 132.828 26.3318 132.825 26.4563V30.9232C132.826 31.0428 132.804 31.1615 132.76 31.2724C132.716 31.3833 132.651 31.4841 132.569 31.569C132.486 31.6595 132.386 31.731 132.274 31.7787C132.162 31.8265 132.042 31.8493 131.92 31.8458L113.633 31.8688Z" fill="#F27D21"/>
<path d="M142.628 23.4117V30.9693C142.628 31.0901 142.604 31.2098 142.558 31.3209C142.511 31.432 142.443 31.5321 142.356 31.6151C142.272 31.7051 142.17 31.7761 142.057 31.8238C141.944 31.8714 141.823 31.8946 141.701 31.8919H135.025C134.908 31.8922 134.791 31.8678 134.684 31.8202C134.576 31.7725 134.479 31.7027 134.4 31.6151C134.313 31.5321 134.245 31.432 134.198 31.3209C134.152 31.2098 134.128 31.0901 134.128 30.9693V8.80389C134.128 8.68305 134.152 8.56339 134.198 8.45231C134.245 8.34123 134.313 8.24109 134.4 8.15808C134.479 8.07047 134.576 8.00067 134.684 7.95304C134.791 7.90541 134.908 7.88098 135.025 7.8813H150.095C152.294 7.77042 154.47 8.38212 156.304 9.62654C157.095 10.1809 157.739 10.927 158.178 11.7978C158.618 12.6686 158.838 13.637 158.821 14.6163C158.821 16.9381 158.132 18.6219 156.756 19.6675C156.385 19.9588 155.989 20.2161 155.573 20.4363C155.087 20.6852 154.583 20.8959 154.066 21.0668C155.164 21.6227 156.124 22.4242 156.876 23.4117L160.983 30.4772C161.077 30.6143 161.132 30.7753 161.141 30.9423C161.15 31.1092 161.114 31.2755 161.035 31.4225C160.957 31.5694 160.84 31.6912 160.698 31.7741C160.556 31.857 160.393 31.8978 160.23 31.8919H152.559C152.392 31.8895 152.229 31.8359 152.092 31.7381C151.952 31.6411 151.834 31.5154 151.745 31.3691L147.91 24.0883V24.1498C147.827 24.0421 147.744 23.9422 147.654 23.8422C147.569 23.7475 147.473 23.6647 147.367 23.5962C146.786 23.4213 146.178 23.3587 145.574 23.4117H142.628ZM142.447 13.4169V17.9761H146.049C147.182 18.0307 148.314 17.853 149.379 17.4532C149.737 17.3037 150.04 17.0426 150.245 16.7071C150.449 16.3717 150.544 15.979 150.517 15.585C150.537 15.2536 150.466 14.9231 150.312 14.631C150.157 14.3388 149.925 14.0966 149.643 13.932C148.862 13.5413 147.995 13.3638 147.126 13.4169H142.447Z" fill="#F27D21"/>
<path d="M170.44 24.4957C171.947 25.6735 173.819 26.26 175.714 26.1487C177.103 26.2075 178.492 26.0229 179.821 25.6029V24.0652H176.679C176.556 24.0662 176.434 24.0423 176.32 23.9947C176.206 23.9472 176.103 23.877 176.016 23.7882C175.929 23.6995 175.86 23.594 175.813 23.4779C175.767 23.3618 175.743 23.2373 175.744 23.1118V19.0524C175.741 18.9289 175.763 18.806 175.81 18.6919C175.857 18.5779 175.927 18.4754 176.015 18.3912C176.195 18.2198 176.433 18.1261 176.679 18.1298H186.271C186.517 18.1261 186.754 18.2198 186.934 18.3912C187.022 18.4754 187.093 18.5779 187.139 18.6919C187.186 18.806 187.208 18.9289 187.205 19.0524V29.8161C187.199 30.0125 187.13 30.2015 187.009 30.3542C186.89 30.5135 186.727 30.6337 186.542 30.7002C184.907 31.2077 183.237 31.5881 181.546 31.8381C179.535 32.1313 177.505 32.2726 175.473 32.2609C170.535 32.2609 166.767 31.2871 164.17 29.3394C161.573 27.3917 160.272 24.3907 160.267 20.3364C160.267 16.3589 161.616 13.2067 164.314 10.8797C167.011 8.55275 170.527 7.40975 174.863 7.45075C176.779 7.43589 178.694 7.57471 180.589 7.86592C181.996 8.05901 183.389 8.35187 184.756 8.74239C184.928 8.78659 185.081 8.88638 185.193 9.02686C185.311 9.16054 185.39 9.32592 185.419 9.50353L185.924 13.7552C185.95 13.91 185.936 14.0689 185.885 14.2169C185.833 14.3649 185.746 14.4971 185.63 14.6009C185.512 14.7056 185.369 14.7765 185.216 14.8062C185.062 14.8359 184.903 14.8234 184.756 14.77C183.679 14.4394 182.375 14.1242 180.861 13.8167C180.107 13.6783 179.353 13.563 178.6 13.4861C177.849 13.4025 177.095 13.3615 176.339 13.3631C174.288 13.2602 172.267 13.9092 170.643 15.1929C169.964 15.7887 169.425 16.5327 169.067 17.3699C168.708 18.207 168.539 19.1158 168.571 20.0288C168.532 20.8689 168.681 21.707 169.004 22.4805C169.328 23.254 169.818 23.9429 170.44 24.4957Z" fill="#F27D21"/>
<path d="M189.473 31.8688C189.355 31.8693 189.237 31.845 189.128 31.7974C189.02 31.7497 188.921 31.6799 188.84 31.5921C188.756 31.5076 188.69 31.407 188.645 31.2961C188.599 31.1853 188.576 31.0663 188.576 30.9462V8.8039C188.576 8.6838 188.599 8.56487 188.645 8.45401C188.69 8.34314 188.756 8.24256 188.84 8.15808C188.921 8.07026 189.02 8.00039 189.128 7.95278C189.237 7.90518 189.355 7.88085 189.473 7.8813H206.954C207.192 7.88715 207.419 7.98624 207.587 8.158C207.756 8.32977 207.853 8.56105 207.859 8.8039V13.2708C207.86 13.3953 207.837 13.5188 207.79 13.6338C207.744 13.7488 207.675 13.8529 207.587 13.9397C207.506 14.0275 207.408 14.0974 207.299 14.145C207.19 14.1926 207.073 14.2169 206.954 14.2165H196.88V16.6614H205.485C205.723 16.6672 205.95 16.7663 206.118 16.9381C206.286 17.1098 206.383 17.3411 206.389 17.5839V21.9894C206.391 22.115 206.368 22.2397 206.321 22.356C206.275 22.4722 206.206 22.5777 206.118 22.6659C206.035 22.7513 205.937 22.819 205.828 22.8652C205.719 22.9114 205.603 22.9351 205.485 22.935H196.88V25.5106H207.768C207.887 25.5076 208.006 25.53 208.116 25.5764C208.226 25.6227 208.326 25.6919 208.409 25.7797C208.493 25.8697 208.559 25.9758 208.603 26.0919C208.647 26.208 208.668 26.3318 208.665 26.4563V30.9232C208.666 31.0428 208.644 31.1615 208.6 31.2724C208.556 31.3833 208.491 31.4841 208.409 31.569C208.328 31.6593 208.228 31.7308 208.118 31.7785C208.007 31.8263 207.888 31.8492 207.768 31.8458L189.473 31.8688Z" fill="#F27D21"/>
<path d="M225.099 17.6608C225.664 18.4297 226.229 19.2446 226.809 20.0596V8.8039C226.809 8.68305 226.833 8.56339 226.879 8.45231C226.926 8.34124 226.994 8.2411 227.08 8.15808C227.166 8.06792 227.27 7.99681 227.384 7.94918C227.498 7.90156 227.62 7.87845 227.743 7.8813H233.591C233.713 7.87951 233.834 7.90313 233.946 7.95072C234.059 7.99831 234.161 8.06887 234.246 8.15808C234.327 8.24369 234.39 8.345 234.431 8.45595C234.473 8.56691 234.492 8.68525 234.487 8.8039V30.9539C234.488 31.0748 234.464 31.1944 234.417 31.3055C234.371 31.4166 234.302 31.5167 234.216 31.5997C234.131 31.6889 234.029 31.7595 233.916 31.8071C233.804 31.8547 233.682 31.8783 233.56 31.8765H226.839C226.703 31.8651 226.571 31.8286 226.447 31.7689C226.311 31.7108 226.19 31.6213 226.093 31.5075L217.662 19.8751V30.9539C217.662 31.0748 217.638 31.1944 217.592 31.3055C217.545 31.4166 217.476 31.5167 217.39 31.5997C217.306 31.6897 217.204 31.7607 217.091 31.8084C216.978 31.856 216.857 31.8792 216.735 31.8765H210.888C210.65 31.8707 210.423 31.7716 210.255 31.5998C210.086 31.428 209.989 31.1968 209.983 30.9539V8.8039C209.989 8.56105 210.086 8.32977 210.255 8.158C210.423 7.98624 210.65 7.88715 210.888 7.8813H217.541C217.694 7.88901 217.843 7.93101 217.978 8.00431C218.111 8.05849 218.222 8.15579 218.295 8.28109L220.856 11.8485C221.685 13.0017 222.529 14.1575 223.388 15.3159C223.938 16.0924 224.541 16.8766 225.099 17.6608Z" fill="#F27D21"/>
<path d="M244.057 31.8688C243.819 31.863 243.592 31.7639 243.424 31.5921C243.255 31.4204 243.158 31.1891 243.153 30.9462V13.9089H236.944C236.824 13.9124 236.704 13.8895 236.594 13.8417C236.483 13.7939 236.384 13.7225 236.303 13.6322C236.219 13.5441 236.152 13.4394 236.108 13.3244C236.064 13.2095 236.043 13.0866 236.047 12.9633V8.8039C236.046 8.68428 236.067 8.56555 236.111 8.45465C236.155 8.34376 236.221 8.24294 236.303 8.15808C236.384 8.06776 236.483 7.99629 236.594 7.94854C236.704 7.90078 236.824 7.87785 236.944 7.8813H257.703C257.825 7.87951 257.946 7.90313 258.058 7.95072C258.171 7.99832 258.273 8.06887 258.358 8.15808C258.439 8.24369 258.502 8.345 258.543 8.45596C258.585 8.56691 258.604 8.68525 258.599 8.8039V12.9633C258.602 13.0879 258.579 13.2116 258.533 13.3268C258.486 13.4419 258.416 13.5459 258.328 13.6322C258.243 13.7214 258.141 13.7919 258.028 13.8395C257.916 13.8871 257.795 13.9107 257.673 13.9089H251.494V30.9539C251.494 31.1949 251.402 31.4265 251.238 31.5997C251.155 31.6903 251.055 31.7618 250.943 31.8095C250.831 31.8572 250.711 31.8801 250.59 31.8765L244.057 31.8688Z" fill="#F27D21"/>
<path d="M115.268 37.389C115.363 37.3869 115.457 37.4042 115.545 37.4399C115.633 37.4755 115.713 37.5288 115.78 37.5966C115.845 37.662 115.897 37.7398 115.931 37.8256C115.966 37.9114 115.984 38.0035 115.984 38.0964V55.1721C115.984 55.265 115.966 55.3571 115.931 55.4429C115.897 55.5287 115.845 55.6065 115.78 55.6718C115.713 55.7396 115.633 55.7929 115.545 55.8286C115.457 55.8642 115.363 55.8815 115.268 55.8794H110.649C110.47 55.8859 110.295 55.8227 110.159 55.7026C110.095 55.6373 110.043 55.5594 110.008 55.4736C109.973 55.3878 109.956 55.2958 109.956 55.2029V45.9769L104.885 55.4796C104.816 55.5962 104.72 55.6938 104.606 55.7641C104.503 55.8334 104.383 55.8732 104.259 55.8794H102.082C101.958 55.8732 101.839 55.8334 101.735 55.7641C101.621 55.6938 101.525 55.5962 101.456 55.4796L96.4682 45.9769V55.2029C96.4663 55.3005 96.4451 55.3967 96.4058 55.4857C96.3665 55.5747 96.31 55.6547 96.2396 55.7208C96.1691 55.7869 96.0863 55.8378 95.9961 55.8703C95.9059 55.9029 95.8102 55.9164 95.7147 55.9102H91.0882C90.9935 55.9123 90.8994 55.895 90.8114 55.8593C90.7234 55.8237 90.6433 55.7704 90.5758 55.7026C90.511 55.6373 90.4597 55.5594 90.4248 55.4736C90.3899 55.3878 90.372 55.2958 90.3723 55.2029V38.0964C90.372 38.0035 90.3899 37.9114 90.4248 37.8256C90.4597 37.7398 90.511 37.662 90.5758 37.5966C90.6433 37.5288 90.7234 37.4755 90.8114 37.4399C90.8994 37.4042 90.9935 37.3869 91.0882 37.389H96.5963C96.7129 37.3957 96.8264 37.4299 96.9278 37.489C97.0409 37.5443 97.1353 37.6326 97.1991 37.7427L103.227 47.7375L109.21 37.7427C109.285 37.6393 109.379 37.5528 109.489 37.489C109.595 37.4276 109.714 37.3933 109.835 37.389H115.268Z" fill="#231F20"/>
<path d="M117.694 55.8794C117.603 55.8797 117.513 55.8615 117.429 55.8259C117.345 55.7903 117.269 55.7379 117.205 55.6718C117.139 55.6069 117.086 55.5293 117.05 55.4435C117.014 55.3577 116.995 55.2655 116.994 55.1721V38.0964C116.995 38.003 117.014 37.9107 117.05 37.825C117.086 37.7392 117.139 37.6616 117.205 37.5966C117.269 37.5306 117.345 37.4782 117.429 37.4426C117.513 37.4069 117.603 37.3887 117.694 37.389H131.167C131.258 37.3878 131.349 37.4056 131.433 37.4413C131.517 37.477 131.593 37.5299 131.657 37.5966C131.723 37.6616 131.775 37.7392 131.811 37.825C131.847 37.9107 131.867 38.003 131.868 38.0964V41.5407C131.868 41.6366 131.85 41.7317 131.814 41.8202C131.777 41.9087 131.724 41.9888 131.657 42.0558C131.595 42.1251 131.519 42.1802 131.435 42.2173C131.35 42.2544 131.259 42.2727 131.167 42.2711H123.406V44.1701H130.044C130.136 44.1712 130.226 44.1908 130.31 44.2278C130.394 44.2647 130.47 44.3183 130.534 44.3854C130.599 44.4493 130.65 44.5258 130.685 44.6103C130.72 44.6949 130.738 44.7857 130.737 44.8775V48.2757C130.734 48.3719 130.711 48.4663 130.671 48.5535C130.631 48.6406 130.574 48.7187 130.504 48.7831C130.44 48.8492 130.364 48.9015 130.279 48.9372C130.195 48.9728 130.105 48.991 130.014 48.9907H123.376V50.9743H131.77C131.863 50.9705 131.956 50.9879 132.042 51.0251C132.128 51.0623 132.205 51.1185 132.267 51.1896C132.332 51.2574 132.383 51.338 132.417 51.4265C132.451 51.5151 132.466 51.6097 132.463 51.7047V55.149C132.465 55.2415 132.448 55.3333 132.415 55.4191C132.381 55.505 132.331 55.5831 132.267 55.6488C132.203 55.7173 132.126 55.7712 132.04 55.8069C131.955 55.8427 131.862 55.8596 131.77 55.8564L117.694 55.8794Z" fill="#231F20"/>
<path d="M145.167 44.939L146.486 46.7918V38.0964C146.485 38.0035 146.503 37.9114 146.538 37.8256C146.573 37.7398 146.624 37.662 146.689 37.5966C146.757 37.5288 146.837 37.4755 146.925 37.4399C147.013 37.4042 147.107 37.3869 147.202 37.389H151.723C151.818 37.3828 151.914 37.3963 152.004 37.4289C152.094 37.4614 152.177 37.5123 152.247 37.5784C152.318 37.6445 152.374 37.7245 152.414 37.8135C152.453 37.9025 152.474 37.9987 152.476 38.0964V55.1721C152.474 55.2697 152.453 55.3659 152.414 55.455C152.374 55.544 152.318 55.624 152.247 55.6901C152.177 55.7562 152.094 55.807 152.004 55.8396C151.914 55.8721 151.818 55.8857 151.723 55.8794H146.546C146.442 55.8744 146.339 55.8482 146.245 55.8025C146.138 55.7585 146.043 55.6901 145.966 55.6027L139.448 46.6381V55.1721C139.449 55.2658 139.43 55.3585 139.394 55.4446C139.358 55.5306 139.304 55.608 139.237 55.6718C139.171 55.7394 139.092 55.7926 139.005 55.8283C138.919 55.864 138.826 55.8814 138.732 55.8794H134.211C134.121 55.8796 134.032 55.8613 133.949 55.8256C133.867 55.79 133.792 55.7377 133.729 55.6718C133.663 55.6069 133.611 55.5293 133.574 55.4435C133.538 55.3577 133.519 55.2655 133.518 55.1721V38.0964C133.519 38.003 133.538 37.9107 133.574 37.825C133.611 37.7392 133.663 37.6616 133.729 37.5966C133.792 37.5308 133.867 37.4785 133.949 37.4428C134.032 37.4072 134.121 37.3889 134.211 37.389H139.35C139.466 37.3954 139.579 37.4268 139.682 37.4813C139.734 37.4987 139.782 37.5267 139.824 37.5637C139.865 37.6007 139.899 37.6459 139.923 37.6966L141.904 40.4413C142.542 41.3331 143.193 42.225 143.856 43.1168C144.293 43.7165 144.738 44.3162 145.167 44.939Z" fill="#231F20"/>
<path d="M166.024 38.0964C166.024 38.0035 166.042 37.9114 166.076 37.8256C166.111 37.7398 166.163 37.662 166.227 37.5966C166.295 37.5288 166.375 37.4755 166.463 37.4399C166.551 37.4042 166.645 37.3869 166.74 37.389H171.502C171.686 37.389 171.862 37.4636 171.992 37.5962C172.122 37.7289 172.195 37.9088 172.195 38.0964V50.0671C172.195 52.3428 171.341 53.9522 169.633 54.8953C168.061 55.741 165.778 56.1639 162.784 56.1639C159.7 56.1639 157.411 55.741 155.92 54.8953C154.269 53.9497 153.441 52.2659 153.441 49.8287V38.0964C153.442 38.003 153.461 37.9107 153.497 37.825C153.533 37.7392 153.586 37.6616 153.652 37.5966C153.719 37.5288 153.799 37.4755 153.887 37.4399C153.975 37.4042 154.069 37.3869 154.164 37.389H158.903C158.997 37.3871 159.09 37.4045 159.177 37.4402C159.263 37.4758 159.342 37.5291 159.408 37.5966C159.475 37.6605 159.529 37.7379 159.565 37.8239C159.601 37.9099 159.62 38.0027 159.619 38.0964V47.8144C159.579 48.2313 159.625 48.6523 159.755 49.0498C159.884 49.4472 160.095 49.8122 160.373 50.1209C161.103 50.6452 161.992 50.8877 162.882 50.8051C163.744 50.8855 164.604 50.627 165.286 50.0824C165.56 49.7639 165.768 49.3918 165.898 48.9888C166.027 48.5857 166.075 48.16 166.039 47.7375L166.024 38.0964Z" fill="#231F20"/>
<path d="M173.815 55.8794C173.733 55.8809 173.651 55.863 173.577 55.827C173.502 55.791 173.437 55.7379 173.386 55.6718C173.272 55.5315 173.21 55.3544 173.212 55.1721V38.0964C173.21 37.9141 173.272 37.737 173.386 37.5966C173.437 37.5306 173.502 37.4775 173.577 37.4415C173.651 37.4055 173.733 37.3875 173.815 37.389H178.118C178.199 37.3887 178.279 37.4072 178.352 37.4432C178.425 37.4792 178.489 37.5316 178.54 37.5966C178.654 37.737 178.715 37.9141 178.713 38.0964V55.1721C178.715 55.3544 178.654 55.5315 178.54 55.6718C178.489 55.7368 178.425 55.7893 178.352 55.8253C178.279 55.8612 178.199 55.8798 178.118 55.8794H173.815Z" fill="#231F20"/>
<path d="M195.026 52.6273C194.655 53.4063 194.101 54.0798 193.414 54.5878C192.639 55.15 191.767 55.5594 190.844 55.7949C189.728 56.0783 188.581 56.2152 187.431 56.2023C186.753 56.2023 186.082 56.2023 185.412 56.1255C184.741 56.0486 184.07 55.9871 183.407 55.8717L183.008 55.8025C182.886 55.787 182.765 55.7639 182.646 55.7334C182.202 55.6565 181.817 55.5796 181.501 55.5104L180.747 55.3566C180.599 55.3225 180.467 55.2385 180.371 55.1183C180.274 55.0059 180.211 54.8669 180.19 54.7185L179.821 50.2362C179.797 50.1091 179.811 49.9776 179.861 49.8586C179.91 49.7395 179.993 49.6381 180.099 49.5673C180.207 49.4992 180.331 49.4631 180.457 49.4631C180.584 49.4631 180.708 49.4992 180.815 49.5673C181.856 50.0392 182.92 50.4549 184.003 50.8128C185.214 51.2508 186.485 51.4896 187.77 51.5202C188.341 51.5422 188.912 51.4535 189.45 51.2588C189.872 51.0896 190.083 50.8359 190.083 50.4899C190.083 50.3131 189.963 50.1439 189.714 49.9671C188.844 49.5837 187.926 49.325 186.986 49.1983C184.319 48.6447 182.468 47.9297 181.433 47.0532C180.871 46.5698 180.426 45.9601 180.133 45.2718C179.84 44.5835 179.707 43.8354 179.745 43.0861C179.696 42.2185 179.859 41.352 180.221 40.5652C180.583 39.7785 181.132 39.0964 181.817 38.5807C183.194 37.5556 185.118 37.0431 187.589 37.0431C188.744 37.0492 189.897 37.1599 191.033 37.3737C191.621 37.4813 192.133 37.5812 192.54 37.6812C192.947 37.7811 193.346 37.8657 193.64 37.958C193.773 37.9992 193.889 38.0827 193.971 38.1963C194.065 38.3013 194.125 38.4326 194.145 38.573L194.612 42.7017C194.628 42.8329 194.611 42.9663 194.563 43.0888C194.514 43.2114 194.435 43.319 194.333 43.4013C194.225 43.4849 194.092 43.5301 193.956 43.5301C193.82 43.5301 193.688 43.4849 193.58 43.4013C193.097 43.1706 192.6 42.9477 192.073 42.7401C191.545 42.5325 191.003 42.348 190.43 42.1789C189.433 41.8692 188.398 41.701 187.356 41.6791C186.816 41.6602 186.276 41.7171 185.751 41.8483C185.374 41.9559 185.186 42.1481 185.186 42.4095C185.186 42.6709 185.374 42.8631 185.758 43.0015C186.143 43.1399 186.512 43.2629 187.054 43.4167C187.597 43.5704 188.169 43.7011 188.863 43.8242C191.374 44.3367 193.085 45.062 193.994 45.9999C194.502 46.494 194.903 47.0915 195.17 47.7538C195.438 48.416 195.566 49.1282 195.546 49.8441C195.593 50.8008 195.414 51.7551 195.026 52.6273Z" fill="#231F20"/>
<path d="M197.309 55.8794C197.219 55.8849 197.129 55.872 197.044 55.8417C196.958 55.8113 196.88 55.7641 196.812 55.7026C196.746 55.6376 196.694 55.56 196.658 55.4743C196.621 55.3885 196.602 55.2962 196.601 55.2029V38.0964C196.602 38.003 196.621 37.9107 196.658 37.825C196.694 37.7392 196.746 37.6616 196.812 37.5966C196.876 37.5306 196.952 37.4782 197.037 37.4426C197.121 37.4069 197.211 37.3887 197.302 37.389H210.782C210.872 37.3889 210.961 37.4072 211.044 37.4428C211.127 37.4785 211.202 37.5308 211.264 37.5966C211.33 37.6616 211.383 37.7392 211.419 37.825C211.455 37.9107 211.474 38.003 211.475 38.0964V41.5407C211.476 41.6366 211.457 41.7317 211.421 41.8202C211.385 41.9087 211.332 41.9888 211.264 42.0558C211.203 42.1242 211.129 42.1786 211.046 42.2157C210.963 42.2528 210.873 42.2717 210.782 42.2711H203.013V44.1701H209.622C209.713 44.1712 209.804 44.1908 209.888 44.2278C209.972 44.2647 210.048 44.3183 210.111 44.3854C210.176 44.4493 210.227 44.5258 210.262 44.6103C210.297 44.6949 210.315 44.7857 210.315 44.8775V48.2757C210.317 48.3723 210.3 48.4683 210.265 48.5581C210.23 48.6479 210.178 48.7297 210.111 48.7985C210.047 48.8645 209.971 48.9169 209.887 48.9526C209.803 48.9882 209.713 49.0064 209.622 49.0061H202.983V50.9897H211.377C211.471 50.9859 211.564 51.0032 211.65 51.0404C211.736 51.0777 211.812 51.1338 211.875 51.2049C211.94 51.2727 211.991 51.3534 212.025 51.4419C212.058 51.5305 212.074 51.6251 212.071 51.7201V55.1644C212.079 55.2626 212.066 55.3615 212.033 55.4543C212.001 55.5471 211.949 55.6318 211.882 55.7026C211.818 55.7711 211.741 55.825 211.655 55.8608C211.57 55.8965 211.477 55.9134 211.385 55.9102L197.309 55.8794Z" fill="#231F20"/>
<path d="M219.666 49.3444V55.1721C219.667 55.2658 219.648 55.3585 219.612 55.4446C219.576 55.5306 219.522 55.608 219.455 55.6718C219.389 55.7394 219.31 55.7926 219.223 55.8283C219.137 55.864 219.044 55.8814 218.95 55.8794H213.811C213.721 55.8796 213.632 55.8613 213.549 55.8256C213.467 55.79 213.392 55.7377 213.329 55.6718C213.263 55.6069 213.211 55.5293 213.174 55.4435C213.138 55.3577 213.119 55.2655 213.118 55.1721V38.0964C213.119 38.003 213.138 37.9107 213.174 37.825C213.211 37.7392 213.263 37.6616 213.329 37.5966C213.392 37.5308 213.467 37.4785 213.549 37.4428C213.632 37.4072 213.721 37.3889 213.811 37.389H225.445C227.14 37.3012 228.818 37.773 230.23 38.7345C230.842 39.1599 231.34 39.7342 231.679 40.4054C232.019 41.0766 232.189 41.8235 232.174 42.5786C232.174 44.3675 231.642 45.6642 230.577 46.4689C230.292 46.6908 229.986 46.8839 229.665 47.0456C229.297 47.2388 228.914 47.4008 228.52 47.5299C228.972 47.7694 229.395 48.0637 229.778 48.4064C230.096 48.6893 230.386 49.0035 230.644 49.3444L233.817 54.7954C233.891 54.9092 233.931 55.0429 233.931 55.1798C233.931 55.3166 233.891 55.4504 233.817 55.5642C233.754 55.6764 233.661 55.7678 233.549 55.8278C233.437 55.8877 233.31 55.9137 233.184 55.9025H227.314C227.185 55.9022 227.059 55.862 226.952 55.7872C226.842 55.7172 226.751 55.6192 226.689 55.5027L223.727 49.8902V49.9364L223.531 49.698C223.468 49.6259 223.394 49.5637 223.313 49.5135C222.849 49.3714 222.363 49.3218 221.881 49.3674L219.666 49.3444ZM219.523 41.6099V45.1235H222.303C223.175 45.168 224.046 45.032 224.865 44.7237C225.142 44.6094 225.376 44.4088 225.534 44.1506C225.693 43.8924 225.767 43.5898 225.747 43.286C225.762 43.0307 225.708 42.776 225.589 42.5506C225.471 42.3251 225.293 42.1378 225.076 42.0097C224.473 41.7062 223.803 41.5684 223.132 41.6099H219.523Z" fill="#231F20"/>
<path d="M235.527 55.8794C235.445 55.8809 235.363 55.863 235.289 55.827C235.214 55.791 235.149 55.7379 235.098 55.6718C234.984 55.5315 234.922 55.3544 234.924 55.1721V38.0964C234.922 37.9141 234.984 37.737 235.098 37.5966C235.149 37.5306 235.214 37.4775 235.289 37.4415C235.363 37.4055 235.445 37.3875 235.527 37.389H239.83C239.911 37.3887 239.991 37.4072 240.064 37.4432C240.137 37.4792 240.201 37.5316 240.252 37.5966C240.366 37.737 240.427 37.9141 240.425 38.0964V55.1721C240.427 55.3544 240.366 55.5315 240.252 55.6718C240.201 55.7368 240.137 55.7893 240.064 55.8253C239.991 55.8612 239.911 55.8798 239.83 55.8794H235.527Z" fill="#231F20"/>
<path d="M242.776 55.8794C242.593 55.8755 242.419 55.7997 242.29 55.6679C242.161 55.5361 242.086 55.3585 242.083 55.1721V38.0964C242.086 37.91 242.161 37.7324 242.29 37.6006C242.419 37.4687 242.593 37.393 242.776 37.389H256.256C256.44 37.389 256.616 37.4636 256.746 37.5962C256.876 37.7289 256.949 37.9088 256.949 38.0964V41.5407C256.951 41.6362 256.934 41.731 256.899 41.8195C256.864 41.908 256.812 41.9884 256.746 42.0558C256.683 42.1244 256.607 42.1789 256.523 42.2159C256.439 42.253 256.348 42.2718 256.256 42.2711H248.472V44.1701H255.111C255.201 44.1714 255.29 44.1911 255.373 44.2281C255.456 44.265 255.531 44.3185 255.593 44.3854C255.66 44.4478 255.713 44.5238 255.75 44.6086C255.786 44.6933 255.804 44.7849 255.804 44.8775V48.2757C255.803 48.371 255.784 48.4652 255.746 48.5524C255.708 48.6397 255.654 48.7182 255.585 48.7831C255.523 48.8489 255.448 48.9012 255.365 48.9369C255.282 48.9726 255.193 48.9909 255.103 48.9907H248.465V50.9743H256.866C256.96 50.9705 257.053 50.9879 257.139 51.0251C257.225 51.0623 257.301 51.1185 257.364 51.1896C257.489 51.3306 257.559 51.5141 257.56 51.7047V55.149C257.56 55.3351 257.49 55.5142 257.364 55.6488C257.3 55.7173 257.223 55.7712 257.137 55.8069C257.051 55.8427 256.959 55.8596 256.866 55.8564L242.776 55.8794Z" fill="#231F20"/>
</svg>
