<svg id="Calque_1" data-name="Calque 1" xmlns="http://www.w3.org/2000/svg" viewBox="0 0 97.03 106.99"><defs><style>.cls-1{fill:none;}.cls-1,.cls-2{stroke:#FF4500;stroke-linecap:round;stroke-linejoin:round;stroke-width:1.71px;}.cls-2{fill:#fff;}</style></defs><title>pictoParticulier</title><path class="cls-1" d="M563.37,385.66V392s1.22,9.63-11.64,9.63S539.92,392,539.92,392v-6.33" transform="translate(-503.52 -327.54)"/><path class="cls-2" d="M572,357.55v-1.28c0-11-8.95-21.34-20-21.34s-20,10.3-20,21.34v1.37a4.27,4.27,0,0,0-5.18,4.18v4.31a4.29,4.29,0,0,0,4.28,4.28,4.23,4.23,0,0,0,1.43-.25c2.07,10.43,10,22.6,19.44,22.6s17.27-12,19.4-22.4a4.25,4.25,0,0,0,.58,0,4.29,4.29,0,0,0,4.28-4.28v-4.31A4.29,4.29,0,0,0,572,357.55Z" transform="translate(-503.52 -327.54)"/><path class="cls-1" d="M539.92,392l-4.1,2.17c-2.26,1.19-8.52,3-13.92,4.08l-7.7,1.5a12.67,12.67,0,0,0-9.81,11.92v22" transform="translate(-503.52 -327.54)"/><path class="cls-1" d="M564.15,392l4.1,2.17c2.26,1.19,8.52,3,13.92,4.08l7.7,1.5a12.67,12.67,0,0,1,9.81,11.92v22" transform="translate(-503.52 -327.54)"/><path class="cls-2" d="M565.89,342.82a31,31,0,0,1-18.22,7.52c-8.83.38-12.5-3.17-12.5-3.17s-2.17,7-3.15,10.48c-4-2.15-6.43-18.69,5-25.59,13.17-8,28-1,29.67,2.11,4.85,0.77,6.67,6.27,6.89,10.5,0.21,4-1.58,12.88-1.58,12.88S566.54,347.17,565.89,342.82Z" transform="translate(-503.52 -327.54)"/><path class="cls-2" d="M536,350.71" transform="translate(-503.52 -327.54)"/></svg>