<svg id="Calque_1" data-name="Calque 1" xmlns="http://www.w3.org/2000/svg" viewBox="0 0 97.03 116.41"><defs><style>.cls-1{fill:none;}.cls-1,.cls-2{stroke:#FF4500;stroke-linecap:round;stroke-linejoin:round;stroke-width:1.71px;}.cls-2{fill:#fff;}</style></defs><title>pictoProfessionnel</title><polyline class="cls-1" points="59.85 65.21 59.85 71.55 48.21 82.88 48.03 82.88 36.39 71.55 36.39 65.21"/><path class="cls-2" d="M701.27,357.55v-1.28c0-11-8.95-21.34-20-21.34s-20,10.3-20,21.34v1.37a4.27,4.27,0,0,0-5.18,4.18v4.31a4.29,4.29,0,0,0,4.28,4.28,4.23,4.23,0,0,0,1.43-.25c2.07,10.43,10,22.6,19.44,22.6s17.27-12,19.4-22.4a4.25,4.25,0,0,0,.58,0,4.29,4.29,0,0,0,4.28-4.28v-4.31A4.29,4.29,0,0,0,701.27,357.55Z" transform="translate(-632.81 -320.45)"/><path class="cls-2" d="M703.56,343.82c-1.08-11.6-7.2-22.51-22.72-22.51-14.3,0-21.64,10.91-22.72,22.51-1.6,1.34-2.62,1.53-2.62,3.77v1.07a7.32,7.32,0,0,0,7.3,7.3h2.81c4,2.48,9.37,3.62,15.23,3.62S692,358.43,696.07,356h2.81a7.32,7.32,0,0,0,7.3-7.3v-1.07C706.18,345.34,705.16,345.16,703.56,343.82Z" transform="translate(-632.81 -320.45)"/><line class="cls-2" x1="37.08" y1="3.66" x2="41.34" y2="22.36"/><line class="cls-2" x1="59.11" y1="3.66" x2="54.85" y2="22.36"/><line class="cls-2" x1="48.03" y1="0.86" x2="48.03" y2="22.36"/><path class="cls-1" d="M669.21,392l-4.1,2.17c-2.26,1.19-8.52,3-13.92,4.08l-7.7,1.5a12.67,12.67,0,0,0-9.81,11.92v22" transform="translate(-632.81 -320.45)"/><path class="cls-1" d="M693.44,392l4.1,2.17c2.26,1.19,8.52,3,13.92,4.08l7.7,1.5A12.67,12.67,0,0,1,729,411.66v22" transform="translate(-632.81 -320.45)"/><polygon class="cls-1" points="48.03 82.88 39.19 90.55 33.03 73.32 36.39 71.55 48.03 82.88"/><polygon class="cls-1" points="48.45 82.59 57.3 90.25 63.45 73.03 60.09 71.25 48.45 82.59"/><path class="cls-1" d="M665.85,393.77s14.51,41.9,15,42.23,15.42-42.52,15.42-42.52" transform="translate(-632.81 -320.45)"/><polygon class="cls-1" points="50.92 91.84 54.3 88.25 48.45 82.59 42.19 88.55 45.27 91.84 45.27 91.84 43.19 102.37 48.03 115.55 53.3 101.77 50.92 91.84 50.92 91.84"/><rect class="cls-1" x="61.44" y="98.5" width="14.5" height="4.78"/><path class="cls-1" d="M662.32,342.82a38.06,38.06,0,0,1,3-9.35" transform="translate(-632.81 -320.45)"/></svg>