<svg xmlns="http://www.w3.org/2000/svg" viewBox="0 0 343.04 97.76">
  <defs>
    <style>
      .cls-1 {
        fill: #f37d20;
        stroke: #231f20;
        stroke-miterlimit: 10;
        stroke-width: 3px;
      }

      .cls-2 {
        fill: #010101;
      }

      .cls-3 {
        fill: #f27d21;
      }

      .cls-4 {
        fill: #231f20;
      }
    </style>
  </defs>
  <g id="Layer_2" data-name="Layer 2">
    <g id="Layer_1-2" data-name="Layer 1">
      <g>
        <path class="cls-1" d="M102.47,12.07V6.88c0-3-2-5.38-4.52-5.38H6C3.53,1.5,1.5,3.91,1.5,6.88V41.73c0,3,2,5.37,4.53,5.37H84.51C87,47.1,89,49.51,89,52.48v3c0,3-2,5.38-4.53,5.38H6c-2.5,0-4.53,2.41-4.53,5.38v5.19c0,3,2,5.38,4.53,5.38H98c2.5,0,4.52-2.41,4.52-5.38V36.53c0-3-2-5.38-4.52-5.38H19.46c-2.5,0-4.53-2.4-4.53-5.37v-3c0-3,2-5.37,4.53-5.37H98C100.45,17.45,102.47,15,102.47,12.07Z"/>
        <g>
          <path class="cls-2" d="M4.3,96.16a.8.8,0,0,1-.32.07s-.1-.09-.18-.24c-.22-.6-.48-1.29-.78-2.08l-.9-2.36c-.29-.8-.58-1.56-.85-2.29S.77,87.91.6,87.41c0-.06,0-.1.11-.12a.82.82,0,0,1,.23,0l.23,0c.07,0,.11.06.11.09.24.74.46,1.39.66,2s.4,1.15.6,1.71.43,1.14.67,1.73.54,1.28.88,2c.33-1.26.61-2.48.84-3.68s.41-2.26.55-3.21.23-1.73.29-2.33.11-1,.13-1,0-.09.1-.12a.64.64,0,0,1,.2,0,.54.54,0,0,1,.2,0c.06,0,.09.06.09.11q0,.34-.18,1.29c-.09.63-.2,1.36-.33,2.18s-.27,1.68-.42,2.58-.31,1.74-.46,2.52-.3,1.44-.44,2A2.82,2.82,0,0,1,4.3,96.16Z"/>
          <path class="cls-2" d="M6.72,91.28a4.61,4.61,0,0,1,.67.09,6.38,6.38,0,0,1,.72.19,5.51,5.51,0,0,1,.65.27,2.05,2.05,0,0,1,.48.35.77.77,0,0,1,.23.53,3.21,3.21,0,0,1-.05.8,5.34,5.34,0,0,1-.25.88,6.45,6.45,0,0,1-.37.83,3,3,0,0,1-.45.61.67.67,0,0,1-.45.24,1,1,0,0,1-.59-.17,1.38,1.38,0,0,1-.39-.41,2.41,2.41,0,0,1-.21-.5,2.45,2.45,0,0,1-.09-.46c0-.56,0-1.07,0-1.5a8.59,8.59,0,0,1,.12-1.09l-.1-.15-.1-.12-.11-.1a.38.38,0,0,0,.13-.1A.53.53,0,0,0,6.72,91.28Zm.57,3.81.13.14a.75.75,0,0,0,.2.11.42.42,0,0,0,.25,0,.63.63,0,0,0,.27-.18,3,3,0,0,0,.58-.82,3.12,3.12,0,0,0,.24-.8,1.66,1.66,0,0,0,0-.67.77.77,0,0,0-.23-.41l-.22-.14a.9.9,0,0,0-.22-.1l-.35-.11L7.39,92a6.24,6.24,0,0,0-.23,1,6.38,6.38,0,0,0,0,.94,4,4,0,0,0,.06.74A1.71,1.71,0,0,0,7.29,95.09Z"/>
          <path class="cls-2" d="M12.19,91.31l1.35-.1,1.38-.12a.22.22,0,0,1,.21.17c0,.1,0,.16-.13.18-.39,0-.84.1-1.36.18a12.39,12.39,0,0,0-1.45.29c0,.33,0,.67,0,1s0,.69,0,1,0,.66.1,1a4.25,4.25,0,0,0,.23.87.79.79,0,0,0,.45.32.67.67,0,0,0,.42,0,1.07,1.07,0,0,0,.37-.22c.11-.11.21-.2.3-.3s.13-.07.18,0,0,.19-.13.34l-.24.24a1.48,1.48,0,0,1-.35.21,1.24,1.24,0,0,1-.45.11,1.42,1.42,0,0,1-.53,0,.84.84,0,0,1-.55-.59,6.46,6.46,0,0,1-.26-1.16c-.06-.45-.1-.91-.12-1.39s-.05-.91-.08-1.29c-.47,0-.81.08-1,.11l-.47.06a.39.39,0,0,1-.2,0L9.71,92a.76.76,0,0,0,0-.15.24.24,0,0,1,0-.12s0-.06.06-.1a.73.73,0,0,1,.22-.08,3.58,3.58,0,0,1,.69-.07,6.42,6.42,0,0,0,.89-.07c0-.34,0-.61,0-.8s0-.36,0-.5l0-.43c0-.14,0-.32,0-.54a.14.14,0,0,1,.09-.12.65.65,0,0,1,.2,0A.66.66,0,0,1,12,89a.26.26,0,0,1,.13.12,1.91,1.91,0,0,1,.06.43c0,.18,0,.38,0,.59v.63C12.2,91,12.2,91.17,12.19,91.31Z"/>
          <path class="cls-2" d="M14.56,91c0-.1,0-.12.15-.08l.34.16c0,.24.08.44.1.58s0,.28,0,.41l0,.41c0,.15,0,.35,0,.6a2.91,2.91,0,0,1,.35-.68,1.94,1.94,0,0,1,.53-.54,2.27,2.27,0,0,1,.79-.33A4.07,4.07,0,0,1,18,91.49a.33.33,0,0,1-.08.22.92.92,0,0,1-.41.13,2.24,2.24,0,0,0-.81.31,2.79,2.79,0,0,0-.59.54,2.59,2.59,0,0,0-.4.65c-.1.23-.19.44-.25.63s0,.23,0,.41a4.86,4.86,0,0,0,0,.56c0,.2,0,.39,0,.57a1.77,1.77,0,0,0,0,.44.1.1,0,0,1-.08.12.52.52,0,0,1-.2.06.34.34,0,0,1-.2,0c-.07,0-.1,0-.1-.11a24.46,24.46,0,0,0-.09-2.84Q14.65,92,14.56,91Z"/>
          <path class="cls-2" d="M18.92,91.55l.28-.08a.59.59,0,0,1,.36,0,.93.93,0,0,1,.72.24c.16.17.17.5,0,1A4.2,4.2,0,0,1,19.51,94a8.14,8.14,0,0,1-1.19,1,.62.62,0,0,0,.48.47,1.17,1.17,0,0,0,.67-.11,3.51,3.51,0,0,0,.69-.4q.33-.25.54-.45l.54-.49a5.8,5.8,0,0,0,.42-.49s.05,0,.06,0a.57.57,0,0,1,0,.12l-.05.22a.75.75,0,0,1-.1.2,1,1,0,0,1-.13.2l-.23.24-.36.39-.46.44a3.18,3.18,0,0,1-.47.37,1.57,1.57,0,0,1-.55.23,1.93,1.93,0,0,1-.68,0,3.09,3.09,0,0,1-.51-.24,1.28,1.28,0,0,1-.29-.27,2,2,0,0,1-.16-.24,1.08,1.08,0,0,1-.06-.2,3.48,3.48,0,0,1-.06-.86,4.7,4.7,0,0,1,.32-1.41,3.62,3.62,0,0,1,.44-.76A1.85,1.85,0,0,1,18.92,91.55Zm-.7,2.84a4.94,4.94,0,0,0,.49-.32,3.71,3.71,0,0,0,.53-.46,3.48,3.48,0,0,0,.43-.58,1.53,1.53,0,0,0,.2-.68.47.47,0,0,0,0-.33s0,0-.06,0a.5.5,0,0,0-.55.08,2.11,2.11,0,0,0-.49.59,4.22,4.22,0,0,0-.38.86A2.91,2.91,0,0,0,18.22,94.39Z"/>
          <path class="cls-2" d="M31.4,90.31a1.05,1.05,0,0,1,.61.77,2,2,0,0,1-.15,1,5.06,5.06,0,0,1-.68,1.13,7.44,7.44,0,0,1-1,1l-.17.15-.23.18-.21.16-.15.12a11.82,11.82,0,0,1-1.56.9c-.52.25-1.08.48-1.68.7a2.12,2.12,0,0,1-.7,0,1.55,1.55,0,0,1-.5-.16.71.71,0,0,1-.3-.26.39.39,0,0,1-.08-.25,5.69,5.69,0,0,0,.58.09,1.42,1.42,0,0,0,.32,0l.16-.06a.62.62,0,0,1,.12-.08c0-.24,0-.46,0-.65s0-.37,0-.53,0-.31,0-.46l0-.47c0-.45,0-.85,0-1.2s0-.64,0-.88l-.63.28-.29.15a.34.34,0,0,1-.12,0l-.09,0a.14.14,0,0,1-.08-.12,1.1,1.1,0,0,1,0-.18c0-.08,0-.16,0-.26l.21-.14.21-.12.3-.15.45-.25c0-.37,0-.7,0-1s0-.57,0-.84,0-.56-.06-.85-.06-.64-.09-1c0,0-.08,0-.23,0a3.92,3.92,0,0,0-.51.25,4.82,4.82,0,0,0-.57.39,1.62,1.62,0,0,0-.4.45,1.23,1.23,0,0,0-.19.27c0,.09-.07.16-.09.22s0,.09-.07.1,0,0-.09-.11a2,2,0,0,1,.24-.77,2.48,2.48,0,0,1,.52-.64,3.09,3.09,0,0,1,.66-.48,4,4,0,0,1,.7-.33,1.19,1.19,0,0,0,0-.27.35.35,0,0,1,0-.18.7.7,0,0,0,.24-.17c.11-.1.18-.15.23-.15a1.49,1.49,0,0,1,0,.18.75.75,0,0,0,0,.16l0,.14a2.61,2.61,0,0,1,.94-.31,3.89,3.89,0,0,1,1,0,2.78,2.78,0,0,1,.86.23,1.07,1.07,0,0,1,.51.39,1.24,1.24,0,0,1,.22,1,3.08,3.08,0,0,1-.39,1,4.71,4.71,0,0,1-.71.95,8.11,8.11,0,0,1-.69.67c.33-.06.66-.11,1-.14a6.54,6.54,0,0,1,1,0,5.58,5.58,0,0,1,.87.11A2,2,0,0,1,31.4,90.31ZM26.16,86.9a11.6,11.6,0,0,0,0,1.87c0,.58.09,1.17.11,1.79a5.49,5.49,0,0,0,.85-.46,4.77,4.77,0,0,0,.82-.69,5,5,0,0,0,.67-.9,3.81,3.81,0,0,0,.42-1.1.56.56,0,0,0-.2-.52,1.42,1.42,0,0,0-.67-.29,3.32,3.32,0,0,0-1,0A3.77,3.77,0,0,0,26.16,86.9Zm.27,8.73a7.93,7.93,0,0,0,1.76-.76,11.5,11.5,0,0,0,1.65-1.16,6.51,6.51,0,0,0,1.2-1.3,1.71,1.71,0,0,0,.36-1.19c0-.24-.26-.4-.66-.49a5.61,5.61,0,0,0-1.42-.1,9.66,9.66,0,0,0-1.65.24,5.23,5.23,0,0,0-1.39.48v.77c0,.37,0,.77,0,1.21s0,.87.05,1.3S26.4,95.39,26.43,95.63Z"/>
          <path class="cls-2" d="M33.32,91.55l.28-.08a.58.58,0,0,1,.36,0,.93.93,0,0,1,.72.24c.16.17.17.5,0,1A4.2,4.2,0,0,1,33.91,94a8.14,8.14,0,0,1-1.19,1,.62.62,0,0,0,.48.47,1.17,1.17,0,0,0,.67-.11,3.51,3.51,0,0,0,.69-.4q.33-.25.54-.45l.54-.49a5.8,5.8,0,0,0,.42-.49s0,0,.06,0a.57.57,0,0,1,0,.12l0,.22a.75.75,0,0,1-.1.2,1,1,0,0,1-.13.2l-.23.24-.36.39-.46.44a3.18,3.18,0,0,1-.47.37,1.57,1.57,0,0,1-.55.23,1.93,1.93,0,0,1-.68,0,3.09,3.09,0,0,1-.51-.24,1.28,1.28,0,0,1-.29-.27,2,2,0,0,1-.16-.24,1.08,1.08,0,0,1-.06-.2,3.05,3.05,0,0,1-.06-.86,4.7,4.7,0,0,1,.32-1.41,3.62,3.62,0,0,1,.44-.76A1.85,1.85,0,0,1,33.32,91.55Zm-.7,2.84a4.94,4.94,0,0,0,.49-.32,3.71,3.71,0,0,0,.53-.46,4.15,4.15,0,0,0,.43-.58,1.53,1.53,0,0,0,.2-.68.47.47,0,0,0,0-.33s0,0-.06,0a.49.49,0,0,0-.55.08,2.11,2.11,0,0,0-.49.59,4.22,4.22,0,0,0-.38.86A2.91,2.91,0,0,0,32.62,94.39Z"/>
          <path class="cls-2" d="M37.64,91a3.05,3.05,0,0,1,.67.18,1.44,1.44,0,0,1,.41.25,1.23,1.23,0,0,1,.24.28c.06.09.12.18.17.27s-.06,0-.15,0a2.26,2.26,0,0,1-.26-.16,1.9,1.9,0,0,0-.85-.27,2.77,2.77,0,0,0-.92.06,1.39,1.39,0,0,0-.68.36.55.55,0,0,0-.13.62,1.37,1.37,0,0,0,.46.64,4.78,4.78,0,0,0,.72.49l.8.39a4.86,4.86,0,0,1,.66.35l.54-.29.4-.23.36-.19.43-.2.05,0s0,0,0,0-.06.07-.13.13a3.32,3.32,0,0,1-.32.25l-.42.27-.65.42a2,2,0,0,1,.3.37,1.16,1.16,0,0,1,.13.37.55.55,0,0,1-.07.41A2.85,2.85,0,0,1,38,97a.93.93,0,0,1-.5,0,.82.82,0,0,1-.43-.26.55.55,0,0,1-.09-.52,1.49,1.49,0,0,1,.3-.51,3.57,3.57,0,0,1,.48-.47l.48-.4a2.64,2.64,0,0,0-.56-.4c-.28-.15-.57-.32-.86-.51a4.83,4.83,0,0,1-.79-.6,1,1,0,0,1-.38-.64,1.07,1.07,0,0,1,.08-.68,1.54,1.54,0,0,1,.45-.57,1.92,1.92,0,0,1,.69-.37A1.88,1.88,0,0,1,37.64,91Zm-.14,5.49a.55.55,0,0,0,.4,0,1.44,1.44,0,0,0,.42-.23,1.94,1.94,0,0,0,.36-.34,1.21,1.21,0,0,0,.2-.33c0-.08,0-.17-.09-.28a1.49,1.49,0,0,0-.28-.24,4.28,4.28,0,0,0-.4.32,3.68,3.68,0,0,0-.39.41,1.37,1.37,0,0,0-.25.4C37.41,96.37,37.42,96.47,37.5,96.53Z"/>
          <path class="cls-2" d="M40.22,91.28a4.43,4.43,0,0,1,.67.09,5.42,5.42,0,0,1,.72.19,4.89,4.89,0,0,1,.65.27,2.13,2.13,0,0,1,.49.35.77.77,0,0,1,.22.53,2.8,2.8,0,0,1,0,.8,5.28,5.28,0,0,1-.24.88,6.43,6.43,0,0,1-.38.83,3,3,0,0,1-.45.61.67.67,0,0,1-.45.24,1,1,0,0,1-.59-.17,1.24,1.24,0,0,1-.38-.41,2,2,0,0,1-.22-.5,2.45,2.45,0,0,1-.09-.46c0-.56,0-1.07,0-1.5a8.83,8.83,0,0,1,.11-1.09.78.78,0,0,0-.1-.15L40,91.67l-.11-.1a.35.35,0,0,0,.12-.1A.46.46,0,0,0,40.22,91.28Zm.58,3.81.12.14a1,1,0,0,0,.2.11.43.43,0,0,0,.25,0,.53.53,0,0,0,.27-.18,3,3,0,0,0,.58-.82,3.17,3.17,0,0,0,.25-.8,1.84,1.84,0,0,0,0-.67.71.71,0,0,0-.23-.41L42,92.33a.9.9,0,0,0-.22-.1,3,3,0,0,0-.35-.11L40.89,92a5.32,5.32,0,0,0-.22,1,6.49,6.49,0,0,0-.06.94,5,5,0,0,0,.07.74A1.12,1.12,0,0,0,40.8,95.09Z"/>
          <path class="cls-2" d="M44.2,89c.11,0,.17,0,.19.19a.4.4,0,0,1-.06.34.76.76,0,0,0-.22.25c0,.07-.11.11-.23.13a.43.43,0,0,0-.16,0s-.09-.09-.12-.27a1,1,0,0,1,.2-.35A1,1,0,0,1,44.2,89Zm0,2.08c0,.51.09,1.08.11,1.69s.06,1.26.11,1.93c.05.34.09.61.13.8a3.89,3.89,0,0,1,.1.54.74.74,0,0,1-.4,0,1.13,1.13,0,0,1-.27-.13c0-.17-.05-.46-.07-.85s-.06-.82-.08-1.29-.06-.91-.08-1.35-.06-.78-.08-1a.21.21,0,0,0,.11-.1.31.31,0,0,1,.09-.11.36.36,0,0,1,.12-.08A.37.37,0,0,1,44.25,91.12Z"/>
          <path class="cls-2" d="M46.39,91.2v.9c0,.3,0,.58,0,.86s0,.54,0,.79,0,.46,0,.65a1.5,1.5,0,0,1,.07-.31c.05-.16.12-.35.2-.57l.28-.68a4.25,4.25,0,0,1,.33-.64,2.43,2.43,0,0,1,.36-.44.33.33,0,0,1,.35-.09,1,1,0,0,1,.49.46,2.3,2.3,0,0,1,.21.7c0,.26.08.55.13.87a3.9,3.9,0,0,0,.29,1,.69.69,0,0,0,.27.35,1.82,1.82,0,0,0,.36.16,1.12,1.12,0,0,0,.27,0c.07,0,.09,0,.07.06a.79.79,0,0,1-.69.21.94.94,0,0,1-.48-.43,2.66,2.66,0,0,1-.33-.78c-.09-.3-.17-.6-.24-.88s-.13-.52-.18-.72-.11-.3-.17-.3-.2.11-.32.28a5.21,5.21,0,0,0-.34.64,8.6,8.6,0,0,0-.34.84l-.29.85c-.09.27-.17.5-.22.69a3.22,3.22,0,0,1-.1.35,1.48,1.48,0,0,0-.29,0s-.1,0-.18-.16c0-.94.07-1.83,0-2.67s0-1.56-.07-2.18c0-.1,0-.14.07-.14a.29.29,0,0,1,.16.06l.18.13A.35.35,0,0,0,46.39,91.2Z"/>
          <path class="cls-2" d="M50.6,95.3a.46.46,0,0,1,.27,0l.23.07a2.76,2.76,0,0,1-.29.72,6.12,6.12,0,0,1-.5.78,5.16,5.16,0,0,1-.55.63.68.68,0,0,1-.42.25c-.05,0,0-.13,0-.26s.21-.31.36-.51.3-.46.46-.74A3.51,3.51,0,0,0,50.6,95.3Z"/>
          <path class="cls-2" d="M57,84.8a.49.49,0,0,1,.52.28,2.53,2.53,0,0,1,.22.76,5.68,5.68,0,0,1,0,.93c0,.32,0,.58,0,.78v1.63c0,.34,0,.7,0,1.07s0,.7,0,1,0,.56,0,.76v.33a1,1,0,0,0,.1-.34l.18-.75c.07-.29.15-.61.24-.94s.18-.63.28-.91c0,0,0-.16.1-.38a4.29,4.29,0,0,1,.26-.7,2.31,2.31,0,0,1,.42-.63.62.62,0,0,1,.63-.19c.19-.05.36.09.5.41a5.42,5.42,0,0,1,.37,1.27c.1.52.19,1.1.26,1.74s.13,1.25.19,1.82.11,1.08.16,1.51a3.71,3.71,0,0,0,.15.81c.17.23.39.24.67.05a4.84,4.84,0,0,0,.95-.94.48.48,0,0,1,0,.18,1,1,0,0,1-.07.34,1.93,1.93,0,0,1-.27.46,3.05,3.05,0,0,1-.57.57.93.93,0,0,1-.93.07,1.06,1.06,0,0,1-.49-.69c0-.11,0-.36-.1-.74s-.09-.83-.14-1.34-.11-1-.18-1.6-.13-1.07-.2-1.54a10.83,10.83,0,0,0-.22-1.15c-.08-.3-.16-.44-.23-.42s-.14,0-.21.09a2,2,0,0,0-.23.44c-.08.19-.16.42-.24.67l-.24.77c-.08.26-.15.49-.21.71s-.11.39-.15.52c-.11.36-.2.7-.28,1s-.14.62-.2,1-.13.73-.18,1.16-.1,1-.14,1.56c-.22,0-.36,0-.42-.08a.86.86,0,0,0-.27-.2c0-.21,0-.53,0-1V93.42c0-.56,0-1.15,0-1.76s0-1.19,0-1.72c0,0,0-.14,0-.34s0-.45,0-.73,0-.61,0-1,0-.68,0-1,0-.6-.08-.85a1.16,1.16,0,0,0-.19-.54c-.12-.07-.28,0-.45.15a3.92,3.92,0,0,0-.57.72,11.81,11.81,0,0,0-.61,1.09c-.2.41-.39.82-.56,1.23s-.32.8-.44,1.17-.2.66-.25.87a.57.57,0,0,1-.15.23.85.85,0,0,1-.21.14.45.45,0,0,1-.22,0,.16.16,0,0,1-.15-.09,12.18,12.18,0,0,1,.38-1.25c.16-.45.34-.91.55-1.38s.41-.91.64-1.35a10.14,10.14,0,0,1,.71-1.16,4.62,4.62,0,0,1,.72-.82A1.12,1.12,0,0,1,57,84.8Z"/>
          <path class="cls-2" d="M63.24,91.28a4.27,4.27,0,0,1,.67.09,6,6,0,0,1,.73.19,4.74,4.74,0,0,1,.64.27,2.13,2.13,0,0,1,.49.35.77.77,0,0,1,.22.53,2.77,2.77,0,0,1,0,.8,6.55,6.55,0,0,1-.25.88,5.32,5.32,0,0,1-.38.83,3,3,0,0,1-.45.61.67.67,0,0,1-.44.24,1,1,0,0,1-.6-.17,1.49,1.49,0,0,1-.38-.41,2,2,0,0,1-.22-.5,3.44,3.44,0,0,1-.08-.46,12.83,12.83,0,0,1,0-1.5,8.83,8.83,0,0,1,.11-1.09c0-.06-.06-.1-.09-.15l-.1-.12-.11-.1a1.13,1.13,0,0,0,.3-.29Zm.58,3.81a.79.79,0,0,0,.13.14.75.75,0,0,0,.2.11.39.39,0,0,0,.24,0,.6.6,0,0,0,.28-.18,3.2,3.2,0,0,0,.57-.82,3.17,3.17,0,0,0,.25-.8,1.64,1.64,0,0,0,0-.67.66.66,0,0,0-.23-.41L65,92.33a1,1,0,0,0-.23-.1,2.74,2.74,0,0,0-.34-.11L63.91,92a6.2,6.2,0,0,0-.22,1,6.38,6.38,0,0,0,0,.94,4,4,0,0,0,.06.74A1.71,1.71,0,0,0,63.82,95.09Z"/>
          <path class="cls-2" d="M68.71,91.31l1.36-.1,1.38-.12a.22.22,0,0,1,.21.17c0,.1,0,.16-.13.18-.39,0-.85.1-1.36.18a12.57,12.57,0,0,0-1.46.29c0,.33,0,.67,0,1s0,.69,0,1,0,.66.1,1a3.26,3.26,0,0,0,.23.87.79.79,0,0,0,.45.32.67.67,0,0,0,.42,0,1.17,1.17,0,0,0,.37-.22,4,4,0,0,0,.29-.3c.08-.07.14-.07.19,0s0,.19-.14.34a2.69,2.69,0,0,1-.24.24,1.4,1.4,0,0,1-.34.21,1.24,1.24,0,0,1-.45.11,1.47,1.47,0,0,1-.54,0,.85.85,0,0,1-.54-.59,5.1,5.1,0,0,1-.26-1.16c-.06-.45-.1-.91-.12-1.39s0-.91-.08-1.29l-1,.11-.47.06a.35.35,0,0,1-.19,0L66.23,92a.26.26,0,0,0,0-.15v-.12a.26.26,0,0,1,.07-.1.65.65,0,0,1,.21-.08,3.6,3.6,0,0,1,.7-.07,6.54,6.54,0,0,0,.89-.07c0-.34,0-.61,0-.8s0-.36,0-.5,0-.29,0-.43,0-.32,0-.54A.14.14,0,0,1,68.1,89a.59.59,0,0,1,.2,0,.76.76,0,0,1,.21,0,.23.23,0,0,1,.12.12,1.41,1.41,0,0,1,.07.43c0,.18,0,.38,0,.59s0,.42,0,.63S68.72,91.17,68.71,91.31Z"/>
          <path class="cls-2" d="M71.08,91c0-.1,0-.12.15-.08l.35.16c0,.24.07.44.09.58a3.05,3.05,0,0,1,0,.41l0,.41c0,.15,0,.35,0,.6a3.94,3.94,0,0,1,.35-.68,2,2,0,0,1,.54-.54,2.3,2.3,0,0,1,.78-.33,4.15,4.15,0,0,1,1.1-.07.29.29,0,0,1-.09.22.87.87,0,0,1-.41.13,2.19,2.19,0,0,0-.8.31,3.12,3.12,0,0,0-.6.54,3.34,3.34,0,0,0-.4.65A6.53,6.53,0,0,0,72,94c0,.1,0,.23,0,.41s0,.36,0,.56,0,.39,0,.57A1.86,1.86,0,0,0,72,96a.09.09,0,0,1-.07.12.66.66,0,0,1-.2.06.38.38,0,0,1-.21,0c-.06,0-.09,0-.09-.11a24.46,24.46,0,0,0-.09-2.84C71.22,92.37,71.15,91.66,71.08,91Z"/>
          <path class="cls-2" d="M75.45,91.55l.27-.08a.61.61,0,0,1,.37,0,.89.89,0,0,1,.71.24c.17.17.18.5,0,1A3.87,3.87,0,0,1,76,94a7.21,7.21,0,0,1-1.19,1c.11.28.27.44.48.47a1.15,1.15,0,0,0,.67-.11,3,3,0,0,0,.69-.4,6.41,6.41,0,0,0,.55-.45c.22-.19.4-.36.53-.49a4.41,4.41,0,0,0,.43-.49s0,0,0,0a.26.26,0,0,1,0,.12s0,.13,0,.22l-.1.2a1.05,1.05,0,0,1-.14.2,1.64,1.64,0,0,1-.23.24l-.35.39-.46.44a2.8,2.8,0,0,1-.48.37,1.45,1.45,0,0,1-.54.23,1.93,1.93,0,0,1-.68,0,3.09,3.09,0,0,1-.51-.24,1.35,1.35,0,0,1-.3-.27,1.14,1.14,0,0,1-.15-.24,1.08,1.08,0,0,1-.06-.2,3,3,0,0,1-.07-.86,5,5,0,0,1,.32-1.41,4.12,4.12,0,0,1,.45-.76A1.85,1.85,0,0,1,75.45,91.55Zm-.7,2.84a4,4,0,0,0,.48-.32,2.87,2.87,0,0,0,.53-.46,3,3,0,0,0,.43-.58,1.41,1.41,0,0,0,.2-.68.43.43,0,0,0,0-.33s0,0-.07,0a.48.48,0,0,0-.54.08,2.13,2.13,0,0,0-.5.59,4.2,4.2,0,0,0-.37.86A2.91,2.91,0,0,0,74.75,94.39Z"/>
          <path class="cls-2" d="M83.42,85a.49.49,0,0,1,.13.2.69.69,0,0,1,0,.24,2.81,2.81,0,0,1,0,.3c0,.11,0,.24,0,.39.55.3,1.15.6,1.79.91a19.15,19.15,0,0,1,1.8,1,7.92,7.92,0,0,1,1.46,1.18,3.08,3.08,0,0,1,.82,1.42,3.87,3.87,0,0,1-.15,1.86,4.43,4.43,0,0,1-1,1.59,5.7,5.7,0,0,1-1.63,1.2,7.5,7.5,0,0,1-2.08.7,3,3,0,0,1-.78,0,2.06,2.06,0,0,1-.68-.17,1.6,1.6,0,0,1-.54-.38,1.31,1.31,0,0,1-.32-.56.58.58,0,0,1,.06-.33.42.42,0,0,1,.15-.19.14.14,0,0,1,.13,0s0,.06,0,.15a.93.93,0,0,0,.13.53.79.79,0,0,0,.32.31,1.55,1.55,0,0,0,.4.17l.35.09c0-.33-.1-.74-.14-1.24s-.09-1-.14-1.6-.09-1.16-.14-1.76-.08-1.18-.12-1.74-.09-1.08-.14-1.54-.09-.84-.14-1.13l-.68-.33-.44-.24-.36-.18a3.76,3.76,0,0,0-.45-.16c-.09-.11-.11-.19-.07-.26a1,1,0,0,0,.08-.27c.27.07.48.13.64.19a2.31,2.31,0,0,1,.41.17l.34.16a2.2,2.2,0,0,0,.45.14v-.22s0-.09,0-.12a.29.29,0,0,0,0-.09v-.12C83,85.07,83.13,85,83.42,85ZM84,90.64c0,.18,0,.42.07.7s0,.59.08.91l.09,1c0,.34.06.66.08,1s0,.57.06.8,0,.41,0,.51a2.65,2.65,0,0,0,1-.13,4.59,4.59,0,0,0,1.31-.6A5.62,5.62,0,0,0,88,93.7a4.56,4.56,0,0,0,.92-1.63,2.78,2.78,0,0,0-.08-1.33,3.27,3.27,0,0,0-.58-1.07,4.57,4.57,0,0,0-1-.84c-.38-.25-.77-.49-1.18-.71s-.83-.42-1.26-.61-.82-.37-1.2-.56a3.51,3.51,0,0,0,0,.46q0,.32.06.72c0,.27,0,.54.06.83s0,.56.07.8,0,.45,0,.61S84,90.62,84,90.64Z"/>
          <path class="cls-2" d="M91.16,91.55l.27-.08a.62.62,0,0,1,.37,0,.89.89,0,0,1,.71.24c.17.17.18.5,0,1A4.2,4.2,0,0,1,91.75,94a8.14,8.14,0,0,1-1.19,1c.1.28.26.44.47.47a1.19,1.19,0,0,0,.68-.11,3.18,3.18,0,0,0,.68-.4,6.41,6.41,0,0,0,.55-.45c.22-.19.4-.36.53-.49a4.41,4.41,0,0,0,.43-.49s0,0,0,0a.24.24,0,0,1,0,.12l0,.22a1.23,1.23,0,0,1-.1.2,1.67,1.67,0,0,1-.13.2,2.69,2.69,0,0,1-.24.24l-.35.39-.46.44a3.18,3.18,0,0,1-.47.37,1.57,1.57,0,0,1-.55.23,1.93,1.93,0,0,1-.68,0,3.09,3.09,0,0,1-.51-.24,1.35,1.35,0,0,1-.3-.27,1.79,1.79,0,0,1-.15-.24,1.08,1.08,0,0,1-.06-.2,3.41,3.41,0,0,1-.07-.86,5.42,5.42,0,0,1,.32-1.41A4.12,4.12,0,0,1,90.6,92,1.85,1.85,0,0,1,91.16,91.55Zm-.7,2.84a4.94,4.94,0,0,0,.49-.32,3.18,3.18,0,0,0,.52-.46,3.54,3.54,0,0,0,.44-.58,1.53,1.53,0,0,0,.2-.68.47.47,0,0,0,0-.33s0,0-.06,0a.49.49,0,0,0-.55.08,2.11,2.11,0,0,0-.49.59,4.22,4.22,0,0,0-.38.86A2.91,2.91,0,0,0,90.46,94.39Z"/>
          <path class="cls-2" d="M97,90.83s0,0,0,0l.14.07a.91.91,0,0,1,.16.11c0,.05.07.08.07.12a9.66,9.66,0,0,1-.7,2.46,12.31,12.31,0,0,1-1.29,2.32.55.55,0,0,1-.39.21.27.27,0,0,1-.26-.18,5.37,5.37,0,0,1-.2-.85q-.09-.52-.18-1.11c-.06-.39-.12-.78-.2-1.18S94,92,94,91.67c-.06-.19,0-.29,0-.33s.22,0,.46.07c0,0,.07.14.11.41l.15,1c.06.39.13.8.21,1.22a7.86,7.86,0,0,0,.29,1.12s.1,0,.2-.19.21-.34.33-.58.27-.52.41-.83.28-.64.4-1,.23-.65.31-1A4,4,0,0,0,97,90.83Z"/>
          <path class="cls-2" d="M98.47,91.28a4.55,4.55,0,0,1,.68.09,6.38,6.38,0,0,1,.72.19,4.74,4.74,0,0,1,.64.27,2.13,2.13,0,0,1,.49.35.82.82,0,0,1,.23.53,3.21,3.21,0,0,1,0,.8,6.55,6.55,0,0,1-.25.88,5.32,5.32,0,0,1-.38.83,2.66,2.66,0,0,1-.44.61.67.67,0,0,1-.45.24,1,1,0,0,1-.59-.17,1.38,1.38,0,0,1-.39-.41,2,2,0,0,1-.21-.5,2.45,2.45,0,0,1-.09-.46c0-.56,0-1.07,0-1.5a8.83,8.83,0,0,1,.11-1.09c0-.06-.06-.1-.09-.15l-.1-.12-.11-.1a.38.38,0,0,0,.13-.1A.5.5,0,0,0,98.47,91.28Zm.58,3.81a.79.79,0,0,0,.13.14.75.75,0,0,0,.2.11.42.42,0,0,0,.25,0,.63.63,0,0,0,.27-.18,3,3,0,0,0,.57-.82,3.17,3.17,0,0,0,.25-.8,1.86,1.86,0,0,0,0-.67.71.71,0,0,0-.24-.41l-.21-.14a1,1,0,0,0-.23-.1,2.74,2.74,0,0,0-.34-.11L99.15,92a5.35,5.35,0,0,0-.23,1,6.38,6.38,0,0,0,0,.94,4,4,0,0,0,.06.74A1.71,1.71,0,0,0,99.05,95.09Z"/>
          <path class="cls-2" d="M102.46,89c.1,0,.17,0,.19.19a.44.44,0,0,1-.06.34.82.82,0,0,0-.23.25c0,.07-.1.11-.22.13a.48.48,0,0,0-.17,0s-.09-.09-.12-.27a1.25,1.25,0,0,1,.2-.35A1,1,0,0,1,102.46,89Zm.05,2.08c0,.51.09,1.08.11,1.69s.06,1.26.11,1.93c0,.34.09.61.13.8s.07.37.09.54a.75.75,0,0,1-.4,0,1.66,1.66,0,0,1-.27-.13c0-.17,0-.46-.07-.85s0-.82-.08-1.29,0-.91-.08-1.35,0-.78-.07-1a.19.19,0,0,0,.1-.1l.09-.11a.32.32,0,0,1,.13-.08A.37.37,0,0,1,102.51,91.12Z"/>
          <path class="cls-2" d="M104,91c0-.1,0-.12.16-.08l.34.16c0,.24.07.44.1.58s0,.28,0,.41,0,.27,0,.41,0,.35,0,.6a3.37,3.37,0,0,1,.36-.68,1.82,1.82,0,0,1,.53-.54,2.27,2.27,0,0,1,.79-.33,4.07,4.07,0,0,1,1.09-.07.29.29,0,0,1-.09.22.82.82,0,0,1-.4.13,2.24,2.24,0,0,0-.81.31,2.79,2.79,0,0,0-.59.54,2.59,2.59,0,0,0-.4.65,4.82,4.82,0,0,0-.25.63c0,.1,0,.23,0,.41a4.86,4.86,0,0,0,0,.56c0,.2,0,.39,0,.57a2.63,2.63,0,0,0,0,.44.09.09,0,0,1-.07.12.59.59,0,0,1-.2.06.38.38,0,0,1-.21,0c-.06,0-.09,0-.09-.11a24.46,24.46,0,0,0-.09-2.84C104.13,92.37,104.06,91.66,104,91Z"/>
        </g>
        <g>
          <path class="cls-3" d="M146.69,35.45a9,9,0,0,1-2.79,3.31,13.16,13.16,0,0,1-4.42,2,23,23,0,0,1-5.87.69c-1.17,0-2.33,0-3.48-.14s-2.3-.23-3.44-.41a6.06,6.06,0,0,0-.7-.12l-.62-.12v0c-.77-.14-1.42-.26-2-.38s-1-.21-1.25-.26a1.2,1.2,0,0,1-.64-.4,1.29,1.29,0,0,1-.32-.68l-.63-7.56a1.1,1.1,0,0,1,.47-1.13,1.2,1.2,0,0,1,1.24-.06,52.68,52.68,0,0,0,5.41,2.19,20.89,20.89,0,0,0,6.49,1.19,7.71,7.71,0,0,0,2.88-.44c.73-.29,1.1-.71,1.1-1.27,0-.29-.21-.58-.64-.88a17.43,17.43,0,0,0-4.7-1.35q-6.89-1.39-9.55-3.62a8.19,8.19,0,0,1-2.9-6.69,8.82,8.82,0,0,1,3.56-7.6q3.56-2.58,9.93-2.59a34.22,34.22,0,0,1,5.93.56c1,.19,1.89.36,2.65.52s1.38.32,1.89.48a1.05,1.05,0,0,1,.57.39,1.2,1.2,0,0,1,.3.64l.8,7a1.22,1.22,0,0,1-.48,1.17,1.06,1.06,0,0,1-1.23.06c-.83-.4-1.69-.77-2.59-1.11s-1.84-.67-2.83-1a19.4,19.4,0,0,0-5.29-.83,10.89,10.89,0,0,0-2.76.27c-.66.19-1,.51-1,1s.33.76,1,1,1.35.45,2.22.7a30.86,30.86,0,0,0,3.11.7Q142.61,22,145,24.37a8.62,8.62,0,0,1,2.67,6.53A10.12,10.12,0,0,1,146.69,35.45Z"/>
          <path class="cls-3" d="M150.61,41a1.23,1.23,0,0,1-1.2-1.2V11a1.23,1.23,0,0,1,1.2-1.2h23.2a1.11,1.11,0,0,1,.83.36A1.15,1.15,0,0,1,175,11v5.81a1.19,1.19,0,0,1-.36.87,1.11,1.11,0,0,1-.83.36H160.44v3.18h11.42a1.11,1.11,0,0,1,.83.36,1.15,1.15,0,0,1,.36.84v5.73a1.21,1.21,0,0,1-.36.88,1.14,1.14,0,0,1-.83.35l-11.42,0v3.35h14.44a1.16,1.16,0,0,1,.86.35,1.23,1.23,0,0,1,.34.88v5.81a1.17,1.17,0,0,1-.34.84,1.13,1.13,0,0,1-.86.36Z"/>
          <path class="cls-3" d="M189.09,30v9.83a1.15,1.15,0,0,1-.36.84,1.17,1.17,0,0,1-.87.36H179a1.13,1.13,0,0,1-.83-.36,1.15,1.15,0,0,1-.36-.84V11a1.15,1.15,0,0,1,.36-.84A1.13,1.13,0,0,1,179,9.8h20a13.66,13.66,0,0,1,8.24,2.27,7.7,7.7,0,0,1,3.34,6.49q0,4.53-2.74,6.57a10.55,10.55,0,0,1-1.57,1,14.21,14.21,0,0,1-2,.82A10.81,10.81,0,0,1,208,30l5.45,9.19a1.17,1.17,0,0,1-1,1.84H202.27a1.11,1.11,0,0,1-.62-.2,1.61,1.61,0,0,1-.46-.48l-5.09-9.47,0,.08c-.11-.14-.22-.27-.34-.4a1.85,1.85,0,0,0-.38-.32A6.46,6.46,0,0,0,193,30Zm-.24-13v5.93h4.78a11.26,11.26,0,0,0,4.42-.68,2.44,2.44,0,0,0,1.51-2.43,2.31,2.31,0,0,0-1.16-2.15,6.68,6.68,0,0,0-3.34-.67Z"/>
          <path class="cls-3" d="M226,31.41a10.52,10.52,0,0,0,7,2.15,16.15,16.15,0,0,0,5.45-.71v-2h-4.17a1.23,1.23,0,0,1-1.24-1.24V24.33a1.13,1.13,0,0,1,.36-.86,1.26,1.26,0,0,1,.88-.34h12.73a1.26,1.26,0,0,1,.88.34,1.13,1.13,0,0,1,.36.86v14a1.17,1.17,0,0,1-.26.7,1.34,1.34,0,0,1-.62.45,44.9,44.9,0,0,1-6.63,1.48,54.8,54.8,0,0,1-8.06.55q-9.83,0-15-3.8T212.5,26q0-7.76,5.37-12.3t14-4.46a48.56,48.56,0,0,1,7.6.54A40.58,40.58,0,0,1,245,10.92a1.09,1.09,0,0,1,.58.37,1.23,1.23,0,0,1,.3.62l.67,5.53a1.2,1.2,0,0,1-.39,1.1,1.17,1.17,0,0,1-1.16.22c-1.43-.43-3.16-.84-5.17-1.24-1-.18-2-.33-3-.43a27.15,27.15,0,0,0-3-.16,11.43,11.43,0,0,0-7.56,2.38,7.92,7.92,0,0,0-2.75,6.29A7.26,7.26,0,0,0,226,31.41Z"/>
          <path class="cls-3" d="M251.26,41a1.15,1.15,0,0,1-.84-.36,1.18,1.18,0,0,1-.35-.84V11a1.18,1.18,0,0,1,.35-.84,1.15,1.15,0,0,1,.84-.36h23.2a1.23,1.23,0,0,1,1.2,1.2v5.81a1.19,1.19,0,0,1-.36.87,1.15,1.15,0,0,1-.84.36H261.09v3.18h11.42a1.23,1.23,0,0,1,1.2,1.2v5.73a1.21,1.21,0,0,1-.36.88,1.18,1.18,0,0,1-.84.35l-11.42,0v3.35h14.45a1.14,1.14,0,0,1,.85.35,1.23,1.23,0,0,1,.34.88v5.81a1.17,1.17,0,0,1-.34.84,1.11,1.11,0,0,1-.85.36Z"/>
          <path class="cls-3" d="M298.54,22.52c.75,1,1.5,2.06,2.27,3.12V11a1.15,1.15,0,0,1,.36-.84,1.19,1.19,0,0,1,.88-.36h7.76a1.19,1.19,0,0,1,.87.36A1.15,1.15,0,0,1,311,11V39.81a1.15,1.15,0,0,1-.36.84,1.19,1.19,0,0,1-.87.36h-8.92a1.5,1.5,0,0,1-.52-.14,1.27,1.27,0,0,1-.47-.34L288.67,25.4V39.81a1.15,1.15,0,0,1-.36.84,1.17,1.17,0,0,1-.87.36h-7.76a1.23,1.23,0,0,1-1.2-1.2V11a1.23,1.23,0,0,1,1.2-1.2h8.83a1.38,1.38,0,0,1,.58.16.86.86,0,0,1,.42.36l3.4,4.64q1.65,2.25,3.36,4.51C297,20.48,297.8,21.5,298.54,22.52Z"/>
          <path class="cls-3" d="M323.7,41a1.23,1.23,0,0,1-1.2-1.2V17.64h-8.24a1.11,1.11,0,0,1-.85-.36,1.19,1.19,0,0,1-.34-.87V11a1.17,1.17,0,0,1,.34-.84,1.11,1.11,0,0,1,.85-.36h27.55a1.19,1.19,0,0,1,.87.36A1.15,1.15,0,0,1,343,11v5.41a1.17,1.17,0,0,1-.36.87,1.19,1.19,0,0,1-.87.36h-8.2V39.81a1.21,1.21,0,0,1-.34.84,1.13,1.13,0,0,1-.86.36Z"/>
        </g>
        <g>
          <path class="cls-4" d="M152.78,48.18a.94.94,0,0,1,.68.27.91.91,0,0,1,.27.65V71.31a.91.91,0,0,1-.27.65.94.94,0,0,1-.68.27h-6.13A.94.94,0,0,1,146,72a.91.91,0,0,1-.27-.65v-12L139,71.71a1.09,1.09,0,0,1-.37.37.92.92,0,0,1-.46.15h-2.89a.92.92,0,0,1-.46-.15,1.09,1.09,0,0,1-.37-.37l-6.62-12.36v12a.94.94,0,0,1-1,.92h-6.14a.94.94,0,0,1-.68-.27.91.91,0,0,1-.27-.65V49.1a.91.91,0,0,1,.27-.65.94.94,0,0,1,.68-.27H128a1,1,0,0,1,.44.13.84.84,0,0,1,.36.33l8,13,7.94-13a1.2,1.2,0,0,1,.37-.33,1,1,0,0,1,.46-.13Z"/>
          <path class="cls-4" d="M156,72.23a.91.91,0,0,1-.65-.27.92.92,0,0,1-.28-.65V49.1a.92.92,0,0,1,.28-.65.91.91,0,0,1,.65-.27h17.88a.89.89,0,0,1,.65.27.92.92,0,0,1,.28.65v4.48a.93.93,0,0,1-.28.67.86.86,0,0,1-.65.28H163.58V57h8.81a.92.92,0,0,1,.65.28.89.89,0,0,1,.27.64v4.42A.94.94,0,0,1,173,63a.91.91,0,0,1-.65.27l-8.81,0v2.58h11.14a.84.84,0,0,1,.66.28.91.91,0,0,1,.26.67v4.48a.9.9,0,0,1-.26.65.87.87,0,0,1-.66.27Z"/>
          <path class="cls-4" d="M192.46,58l1.75,2.41V49.1a.91.91,0,0,1,.27-.65.94.94,0,0,1,.68-.27h6a.94.94,0,0,1,1,.92V71.31a.94.94,0,0,1-1,.92h-6.87a1.05,1.05,0,0,1-.4-.1,1,1,0,0,1-.37-.26l-8.65-11.66v11.1a.88.88,0,0,1-.28.65.92.92,0,0,1-.67.27h-6a.89.89,0,0,1-.64-.27.92.92,0,0,1-.28-.65V49.1a.92.92,0,0,1,.28-.65.89.89,0,0,1,.64-.27h6.82a1.08,1.08,0,0,1,.44.12.54.54,0,0,1,.32.28l2.63,3.57q1.27,1.74,2.59,3.48C191.3,56.41,191.89,57.19,192.46,58Z"/>
          <path class="cls-4" d="M220.14,49.1a.91.91,0,0,1,.27-.65.94.94,0,0,1,.68-.27h6.32a.92.92,0,0,1,.92.92V64.67q0,4.44-3.4,6.28-3.13,1.65-9.09,1.65-6.14,0-9.11-1.65c-2.19-1.23-3.29-3.42-3.29-6.59V49.1a.92.92,0,0,1,.28-.65.94.94,0,0,1,.68-.27h6.29a.92.92,0,0,1,.67.27.88.88,0,0,1,.28.65V61.74a3.87,3.87,0,0,0,1,3,5,5,0,0,0,3.33.89,4.51,4.51,0,0,0,3.19-.94,4.08,4.08,0,0,0,1-3.05Z"/>
          <path class="cls-4" d="M230.48,72.23a.71.71,0,0,1-.57-.27,1,1,0,0,1-.23-.65V49.1a1,1,0,0,1,.23-.65.71.71,0,0,1,.57-.27h5.71a.71.71,0,0,1,.56.27,1,1,0,0,1,.23.65V71.31a1,1,0,0,1-.23.65.71.71,0,0,1-.56.27Z"/>
          <path class="cls-4" d="M258.63,68a6.84,6.84,0,0,1-2.14,2.55,10.13,10.13,0,0,1-3.41,1.57,17.94,17.94,0,0,1-4.53.53c-.9,0-1.79,0-2.68-.1s-1.78-.18-2.66-.33l-.53-.09a4,4,0,0,1-.48-.09v0c-.59-.1-1.1-.2-1.52-.29l-1-.2a.9.9,0,0,1-.5-.31,1,1,0,0,1-.24-.52l-.49-5.83a.85.85,0,0,1,.37-.87.9.9,0,0,1,.95,0A43.12,43.12,0,0,0,244,65.64a16.09,16.09,0,0,0,5,.92,6,6,0,0,0,2.23-.34c.56-.22.84-.55.84-1,0-.23-.16-.45-.49-.68a13.64,13.64,0,0,0-3.62-1q-5.31-1.08-7.37-2.79a6.32,6.32,0,0,1-2.24-5.16,6.79,6.79,0,0,1,2.75-5.86q2.74-2,7.66-2a25.94,25.94,0,0,1,4.57.43c.78.14,1.46.27,2,.4s1.07.24,1.46.36a.86.86,0,0,1,.44.31.92.92,0,0,1,.23.49l.62,5.37a1,1,0,0,1-.37.91.83.83,0,0,1-1,0c-.64-.3-1.3-.59-2-.86s-1.42-.51-2.18-.73a15.08,15.08,0,0,0-4.08-.65,7.83,7.83,0,0,0-2.13.22c-.5.14-.75.39-.75.73s.25.59.76.77,1,.34,1.72.54,1.48.37,2.4.53q5,1,6.81,2.83a6.65,6.65,0,0,1,2.06,5A7.82,7.82,0,0,1,258.63,68Z"/>
          <path class="cls-4" d="M261.66,72.23A.91.91,0,0,1,261,72a.92.92,0,0,1-.28-.65V49.1a.92.92,0,0,1,.28-.65.91.91,0,0,1,.65-.27h17.89a.89.89,0,0,1,.64.27.92.92,0,0,1,.28.65v4.48a.93.93,0,0,1-.28.67.86.86,0,0,1-.64.28H269.23V57H278a.92.92,0,0,1,.65.28.89.89,0,0,1,.27.64v4.42a.94.94,0,0,1-.27.68.91.91,0,0,1-.65.27l-8.81,0v2.58h11.14a.84.84,0,0,1,.66.28.91.91,0,0,1,.26.67v4.48A.9.9,0,0,1,281,72a.87.87,0,0,1-.66.27Z"/>
          <path class="cls-4" d="M291.33,63.73v7.58a.88.88,0,0,1-.28.65.92.92,0,0,1-.67.27h-6.82a.89.89,0,0,1-.64-.27.92.92,0,0,1-.28-.65V49.1a.92.92,0,0,1,.28-.65.89.89,0,0,1,.64-.27H299a10.48,10.48,0,0,1,6.35,1.75,5.91,5.91,0,0,1,2.58,5q0,3.49-2.12,5.06a7.35,7.35,0,0,1-1.21.75,10,10,0,0,1-1.52.63,8.41,8.41,0,0,1,1.67,1.14,8.55,8.55,0,0,1,1.15,1.22l4.21,7.09a.9.9,0,0,1,0,1,.88.88,0,0,1-.84.44h-7.79a.85.85,0,0,1-.48-.15,1,1,0,0,1-.35-.37l-3.93-7.3,0,.06-.26-.31a1.28,1.28,0,0,0-.29-.24,5,5,0,0,0-1.9-.19Zm-.19-10.06v4.57h3.69a8.58,8.58,0,0,0,3.4-.52,1.88,1.88,0,0,0,1.17-1.87,1.79,1.79,0,0,0-.89-1.66,5.13,5.13,0,0,0-2.58-.52Z"/>
          <path class="cls-4" d="M312.38,72.23a.71.71,0,0,1-.57-.27,1,1,0,0,1-.23-.65V49.1a1,1,0,0,1,.23-.65.71.71,0,0,1,.57-.27h5.71a.71.71,0,0,1,.56.27,1,1,0,0,1,.23.65V71.31a1,1,0,0,1-.23.65.71.71,0,0,1-.56.27Z"/>
          <path class="cls-4" d="M322,72.23a.94.94,0,0,1-.92-.92V49.1a.94.94,0,0,1,.92-.92h17.89a.92.92,0,0,1,.92.92v4.48a.92.92,0,0,1-.27.67.88.88,0,0,1-.65.28H329.56V57h8.81a.9.9,0,0,1,.64.28.86.86,0,0,1,.28.64v4.42A.91.91,0,0,1,339,63a.89.89,0,0,1-.64.27l-8.81,0v2.58H340.7a.84.84,0,0,1,.66.28,1,1,0,0,1,.26.67v4.48a.94.94,0,0,1-.26.65.87.87,0,0,1-.66.27Z"/>
        </g>
      </g>
    </g>
  </g>
</svg>
